<svg xmlns="http://www.w3.org/2000/svg" width="40" height="40" viewBox="0 0 40 40">
  <g id="Bank" transform="translate(-3 -3.001)" style="isolation: isolate">
    <path id="Path_69" data-name="Path 69" d="M42.31,38.864h-.69V36.795a.69.69,0,0,0-.69-.69h-.69V19.553h.69a.69.69,0,0,0,.69-.69V16.1a.2.2,0,0,0,0-.062.545.545,0,0,0,0-.138l-.041-.117-.076-.1a.462.462,0,0,0-.1-.1l-.041-.041L23.434,3.125a.69.69,0,0,0-.786,0L4.717,15.539l-.041.041a.462.462,0,0,0-.1.1l-.076.1-.041.117a.545.545,0,0,0,0,.138.2.2,0,0,0-.083.062v2.759a.69.69,0,0,0,.69.69h.69V36.1h-.69a.69.69,0,0,0-.69.69v2.069H3.69a.69.69,0,0,0-.69.69v2.759a.69.69,0,0,0,.69.69H42.31a.69.69,0,0,0,.69-.69V39.553A.69.69,0,0,0,42.31,38.864ZM38.862,36.1H37.483V19.553h1.379Zm-8.276,0V19.553H36.1V36.1Zm-11.034,0V19.553h6.9V36.1ZM9.9,36.1V19.553h5.517V36.1Zm6.9-16.552h1.379V36.1H16.793Zm11.034,0h1.379V36.1H27.828Zm12.414-1.379H5.759V16.794H40.241ZM23,4.532,38.724,15.415H7.276ZM7.138,19.553H8.517V36.1H7.138ZM5.759,37.484H40.241v1.379H5.759Zm35.862,4.138H4.379V40.243H41.621Z" transform="translate(0 0)" fill="#778ba0"/>
    <path id="Path_70" data-name="Path 70" d="M26.7,16.532h7.035a.7.7,0,1,0,0-1.407h-.8a2.814,2.814,0,0,0-5.431,0h-.8a.7.7,0,1,0,0,1.407Zm3.518-2.111a1.407,1.407,0,0,1,1.21.7h-2.42A1.407,1.407,0,0,1,30.221,14.422Z" transform="translate(-7.221 -3.131)" fill="#778ba0"/>
  </g>
</svg>
