<svg xmlns="http://www.w3.org/2000/svg" viewBox="0 0 1517.68 200"><defs><style>.cls-1{fill:#4d4d4d;}</style></defs><title>c1</title><g id="Layer_2" data-name="Layer 2"><g id="Layer_1-2" data-name="Layer 1"><path class="cls-1" d="M681,0H634.89V32.27H681Z"/><path class="cls-1" d="M925.15,84.43c-16.32-25.28-31-48.49-46.32-71.35-2.46-3.68-7.17-7.86-11.13-8.17-13.06-1-26.25-.38-40.05-.38V160.79h46.66V79.4c16.41,26,31.37,50,46.78,73.76,2.24,3.45,6.43,7.65,10,7.88,13.9.91,27.89.37,42.21.37V5.45H925.15Z"/><path class="cls-1" d="M296.63,49.82c-6.37,3.5-11.61,9-17.4,13.68-15.88-26-32.71-27.16-65.8-4.44q-.68-6.42-1.26-12H175.11V160.74h41.38c0-18.92-.22-37.17.09-55.41.16-9.9-2-21.9,12.88-23.54,10-1.11,13.78,5.77,13.79,23.63v55.27h43.69c0-21.08.14-41.44-.07-61.8-.1-9.76,4.34-16.21,13.9-16.13,9.24.07,12.8,7,12.61,15.9-.07,3.4,0,6.81,0,10.22v52H356c0-27.06.79-52.64-.2-78.16C354.52,50.61,324.82,34.33,296.63,49.82Z"/><path class="cls-1" d="M103.66,4.75c-12.32-.61-24.73.29-37-.43-8.47-.5-11.9,3.13-14.45,10.62C43.59,40.2,34.43,65.26,25.41,90.37,17,113.68,8.58,137,0,160.69H52.44c1.43-4.66,2-9.08,4.09-12.56,1.79-3,5.27-6.75,8.15-6.89,14.83-.69,29.71-.32,44.89-.32,1.32,5.31,1.71,10.18,3.8,14.17,1.42,2.74,5.13,5.92,7.93,6,14.84.6,29.72.28,47,.28C149.41,109.23,131.5,59.47,113.08,9.9,112.12,7.3,107,4.91,103.66,4.75Zm-35,104C73.5,92.21,78.09,76.62,83.77,57.3c5.56,19,10.13,34.7,15,51.43Z"/><path class="cls-1" d="M441.38,43.46c-9.72.61-19.22,4.74-29.6,7.49V3.37H368.3V160.9c3.83.21,6.78.48,9.73.5,9.34.06,18.68,0,28.35,0l2.57-9.91c37.31,28.41,74.62,4,79.55-25.18,2.49-14.76,2.21-30.54.08-45.41C485.24,57.68,464.88,42,441.38,43.46Zm-11.45,87.18c-12.25.17-20.15-9.88-20.14-25.61,0-15.3,8.43-25.86,20.4-25.61,10.65.23,17.89,11.06,17.71,26.51C447.73,120.86,440.73,130.49,429.93,130.64Z"/><path class="cls-1" d="M814,88.16c-.67-27.37-11.32-41.21-37.56-43.62-17.51-1.61-35.7,0-53.14,2.84-16.27,2.69-26.19,17.69-26.15,35.15,16.33-3.45,34.22,7,49.25-7.75,2.34-2.3,8.3-2.09,12.2-1.25,3.21.69,5.83,4,8.71,6.22-2.57,3-4.86,6.24-7.83,8.74-1.39,1.17-4.07.78-6.15,1.19-13.72,2.66-27.7,4.43-41.09,8.26-14.79,4.22-22.18,16.35-21.91,32.14.28,16.57,7.34,27,22.55,31.48,20.3,6,39.38,2.9,55.51-8.49,14.63,17,33.53,3.49,48.79,9.17-1.22-10.57-2.76-18.67-3-26.81C813.8,119.68,814.41,103.91,814,88.16ZM746.16,138c-3.64-.68-8.16-4.61-9.29-8-.75-2.3,3-8,6.06-9.26,7.55-3.3,15.8-5,23.9-7.35C768.13,130.56,759.83,140.6,746.16,138Z"/><path class="cls-1" d="M1514.08,133.21c-.77-17.87.09-35.83-1.14-53.66-1.43-20.72-10.65-31-31.08-33.93-13.77-2-28.13-2.9-41.88-1.33-29.71,3.38-39.61,12.78-43.76,38.4,16.91-3.81,35,6.75,50.89-7.72,3.1-2.83,11.8.11,17.79,1.15,1,.18,2.38,5.89,1.76,6.3-4.33,2.89-8.89,6-13.84,7.24-12.77,3.07-26,4.45-38.63,7.84a32.74,32.74,0,0,0-24.32,32.18c.45,16.23,8.58,27.53,24.1,32.08,20.31,6,39.33,2,57-9.56,3,10.21,20.2,12.75,46.75,8.1C1516.41,151.18,1514.47,142.23,1514.08,133.21Zm-65.63,5c-4.25-.54-8-4.8-12-7.35,2.83-3.7,5.11-8.11,8.66-10.86,2.78-2.15,7.15-2.24,10.81-3.25l11.79-3.25C1467.64,131.23,1461.1,139.76,1448.45,138.17Z"/><path class="cls-1" d="M619.21,49.45h-45.5c0,21.28-.37,41.67.15,62,.27,10.63-3.26,17.58-14.22,18.7-9.42,1-15-6.35-15.24-19-.14-7.66,0-15.33,0-23V49.59h-45c0,26.57-.28,52.11.1,77.63.24,15.82,8.07,27.22,22.37,34.25,19.42,9.54,38.5,6.11,56-10.66.66,3.67,1.25,7,1.75,9.82h39.67Z"/><path class="cls-1" d="M1113,113.6c.58-44.12-26.23-70.34-69.69-70.2-38.18.12-64.09,25.77-63.49,62.83.63,38,28,60.05,72.47,58.3,33.78-1.33,56-16.76,54.74-38.79-8.88,0-17.81.1-26.73,0-7.57-.1-13.82.55-20.43,6.56-4.14,3.76-15,3.68-20.84,1s-9.32-10.69-13.83-16.37l3-3.32Zm-68.86-40.52c10.45-.59,20.17,2,23.53,16.08h-41.2C1027.21,77.57,1035,73.61,1044.15,73.08Z"/><path class="cls-1" d="M1182.49,43.4c-37.88,0-64.33,25.2-64,61.06.4,37.84,25.5,62.09,64.27,62.1,38.49,0,64-24.2,63.81-60.62C1246.46,68.75,1220.52,43.46,1182.49,43.4Zm18.26,68.37c-1.4,11-3.91,22.52-17.23,22.68-12.8.15-17.62-10.78-18.79-21.76-.86-8.07-.89-17.21,2.18-24.38C1169.18,83,1177.06,77,1182.4,77s12,6.23,15.77,11.42c3.14,4.36,2.92,11.16,3.78,15C1201.35,107.59,1201,109.68,1200.75,111.77Z"/><path class="cls-1" d="M1306.79,118.65c-2.72-13.39-.84-27.71-.84-41.93l19.4-1.38V49l-19.75-1.3V15.33H1263V47.91L1246.4,49V75.13l15.38,2c0,19.89.08,39,0,58.19-.06,12.55,4.87,22.56,17.67,24.38,15.64,2.22,31.65,2,47.84,2.78v-30.9l-2.76,2.62C1318.32,129.08,1308,124.79,1306.79,118.65Z"/><path class="cls-1" d="M634.83,144c0,20.54,0,20.54-19.82,23.8v31.78c12.89,0,24.48,1.06,35.81-.23,23.65-2.69,31.41-12.21,31.46-36.17q.06-39.63,0-79.26V47.22H634.83Z"/><path class="cls-1" d="M1379.44,30.3c-13.19-8.14-26.73-15.72-40.67-23.78-5.08,26.84-4.6,27.89,16.3,39.89,8.3,4.77,16.55,9.63,26.66,15.52-13.66,8-25.51,14.44-36.83,21.73-3.42,2.2-7.54,6.59-7.65,10.09-.7,22-.36,44.14-.36,66.65h45.39c0-41.51,0-82-.12-122.47C1382.15,35.31,1381.26,31.42,1379.44,30.3Z"/></g></g></svg>