<svg xmlns="http://www.w3.org/2000/svg" viewBox="0 0 198.83 200"><defs><style>.cls-1{fill:#4d4d4d;}</style></defs><title>c2</title><g id="Layer_2" data-name="Layer 2"><g id="Layer_1-2" data-name="Layer 1"><path class="cls-1" d="M29.14,47.42c-5.71-.26-7,2-7,7.3.27,16.82.1,33.66.1,50.49,0,14.06.07,28.12-.08,42.18,0,3.48,1,4.88,4.66,5,9.28.39,9.51.54,9.57-9.22q.24-38.32.08-76.63c0-3.88.79-6,5.16-5.8,3.82.22,7.76-.35,7.2,5.67-.43,4.49-.1,9-.23,13.58-.14,4.75,2,6.85,6.8,6.66,5-.2,10.11,0,14.84,0a11.84,11.84,0,0,1,.64,2.11c0,11.09.25,22.18,0,33.26-.1,4.72,1.17,7.1,6.29,6.7,3.74-.29,7.52-.07,11.28-.06,16.24,0,22.4,4.57,27.82,20a6.52,6.52,0,0,0,4.32,3.45c3,.55,6.18.16,10,.16-.37-3.37-.34-5.93-1-8.31-4.78-18.22-18.18-28.74-37-28.61-5.57,0-7.8-1.42-7.51-7.33.45-9.49-.12-19,.2-28.51.2-5.57-2-7.53-7.34-7.08-3.34.29-6.75-.18-10.09.13-4.3.39-5.55-1.44-5.28-5.48.28-4.34-.14-8.72.11-13.06.27-4.71-1.15-6.84-6.35-6.61C47.37,47.81,38.23,47.83,29.14,47.42Z"/><path class="cls-1" d="M12.87,152.14c.15-3,.38-5.39.38-7.73.06-36.25,0-72.5.22-108.75a34,34,0,0,1,2.08-12.12c3-7.54,9.49-9.36,17-6.84a26.87,26.87,0,0,0,12.74.56c3.9-.7,6.22-4,6.11-8.4S49,1.72,44.73,1.09A62.62,62.62,0,0,0,31.8.06C13.65,1.16.75,14.17.74,30.94Q.71,89.47.65,148a27.16,27.16,0,0,0,.67,4.13Z"/><path class="cls-1" d="M97.57,61.12A110.21,110.21,0,0,1,111,63c37.5,6.52,69.25,40.87,72.81,78.75,1.05,11.16,1.05,11.16,12.47,10.44a17.2,17.2,0,0,0,1.9-.41c0-3.57.41-6.95-.07-10.21C192.69,104.49,174.73,76,140.78,58.5c-13.23-6.81-27.34-9.83-42-11-3.65-.28-6.45.63-6.3,5C92.61,56.2,91.12,60.8,97.57,61.12Z"/><path class="cls-1" d="M100.39,84.17c29.54,2.61,55.52,26.58,60.11,55.05.68,4.23,1.44,8.44,2.19,12.84h13a77.58,77.58,0,0,0-7.74-34.77c-13.57-28.22-36.49-43.09-67-47.07-7.65-1-8.8.82-8.63,8.57C92.46,84.9,97.17,83.89,100.39,84.17Z"/><path class="cls-1" d="M99.36,107c20.11,3,34.9,16.63,39,35.9,2.1,10,2.1,10,12.69,9.32a9.2,9.2,0,0,0,1.35-.33c.33-.51.51-.66.52-.83,1.2-29.15-23.86-56.77-55.81-58.25a5.42,5.42,0,0,0-4.22,2.34C90,100.69,93.11,106,99.36,107Z"/><path class="cls-1" d="M62.58,98.36c0-1.06-1.61-2.72-2.77-3.06-7.87-2.33-11.22.16-11.21,8.19,0,12.64.21,25.27.18,37.91,0,12,1,12.86,13.92,10C62.7,133.8,62.75,116.08,62.58,98.36Z"/><path class="cls-1" d="M85.36,146c-.06-8.75-.49-9.25-7.13-9.24-6.83,0-6.86.57-7.33,8.86-.34,5.9,2.21,7,7.28,6.94C83.5,152.48,86.91,151.4,85.36,146Z"/><path class="cls-1" d="M98,137.75c-3.46-.58-5.51.08-5.67,4.37-.38,10.15-.34,10.4,9.55,10.31,1.92,0,3.85-.19,6.16-.32C108,143.82,104.37,138.84,98,137.75Z"/><polygon class="cls-1" points="3.75 169.04 9.32 176.88 11.79 176.88 11.79 162.44 8.49 162.44 8.49 170.28 2.92 162.44 0.45 162.44 0.45 176.88 3.75 176.88 3.75 169.04"/><polygon class="cls-1" points="23.24 165.62 23.24 162.44 14.27 162.44 14.27 176.88 23.35 176.88 23.35 173.7 17.57 173.7 17.57 171.15 22.73 171.15 22.73 168.01 17.57 168.01 17.57 165.62 23.24 165.62"/><polygon class="cls-1" points="38.39 172.55 35.6 162.44 32.92 162.44 30.14 172.55 27.64 162.44 24.18 162.44 28.16 176.88 31.91 176.88 34.26 168.36 36.61 176.88 40.37 176.88 44.35 162.44 40.88 162.44 38.39 172.55"/><polygon class="cls-1" points="51.78 176.88 51.78 165.62 55.49 165.62 55.49 162.44 44.76 162.44 44.76 165.62 48.48 165.62 48.48 176.88 51.78 176.88"/><path class="cls-1" d="M63,177.17a7.51,7.51,0,1,0-7.51-7.51A7.45,7.45,0,0,0,63,177.17Zm0-11.8a4.29,4.29,0,1,1-4.21,4.29A4.11,4.11,0,0,1,63,165.37Z"/><polygon class="cls-1" points="74.7 176.88 78.45 176.88 80.8 168.36 83.15 176.88 86.91 176.88 90.89 162.44 87.42 162.44 84.93 172.55 82.14 162.44 79.46 162.44 76.68 172.55 74.18 162.44 70.72 162.44 74.7 176.88"/><polygon class="cls-1" points="100.38 170.28 94.81 162.44 92.34 162.44 92.34 176.88 95.64 176.88 95.64 169.04 101.2 176.88 103.68 176.88 103.68 162.44 100.38 162.44 100.38 170.28"/><polygon class="cls-1" points="111.32 162.44 111.32 176.88 114.62 176.88 114.62 170.2 119.23 176.88 122.99 176.88 117.92 169.48 122.78 162.44 119.03 162.44 114.62 168.71 114.62 162.44 111.32 162.44"/><path class="cls-1" d="M129.88,177.17a7.51,7.51,0,1,0-7.51-7.51A7.44,7.44,0,0,0,129.88,177.17Zm0-11.8a4.29,4.29,0,1,1-4.21,4.29A4.11,4.11,0,0,1,129.88,165.37Z"/><polygon class="cls-1" points="139.25 162.44 139.25 176.88 147.71 176.88 147.71 173.7 142.55 173.7 142.55 162.44 139.25 162.44"/><polygon class="cls-1" points="149.15 162.44 149.15 176.88 152.45 176.88 152.45 170.2 157.07 176.88 160.83 176.88 155.75 169.48 160.62 162.44 156.87 162.44 152.45 168.71 152.45 162.44 149.15 162.44"/><path class="cls-1" d="M166.15,162.44l-4.91,14.44h3.61l.72-2.27h5.37l.72,2.27h3.61l-4.91-14.44Zm.41,9.08,1.69-5.3,1.7,5.3Z"/><polygon class="cls-1" points="181.46 176.88 181.46 165.62 185.17 165.62 185.17 162.44 174.44 162.44 174.44 165.62 178.16 165.62 178.16 176.88 181.46 176.88"/><path class="cls-1" d="M188.68,174.61H194l.72,2.27h3.61l-4.91-14.44h-4.2l-4.91,14.44H188Zm2.68-8.39,1.69,5.3h-3.38Z"/><path class="cls-1" d="M9.51,194.8A3.22,3.22,0,0,0,13,191.61v-.27H9.37v.51h3.05a2.68,2.68,0,0,1-2.91,2.42,3.18,3.18,0,1,1,0-6.36,2.89,2.89,0,0,1,2.6,1.5l.49-.29a3.55,3.55,0,0,0-3.09-1.74,3.71,3.71,0,1,0,0,7.42Z"/><path class="cls-1" d="M14.89,191.74h2.27l1.73,2.95h.62l-1.78-3a2.12,2.12,0,0,0-.55-4.17H14.35v7.19h.54Zm0-3.73h2.29a1.61,1.61,0,0,1,0,3.21H14.89Z"/><polygon class="cls-1" points="24.78 194.17 21.19 194.17 21.19 191.32 24.48 191.32 24.48 190.8 21.19 190.8 21.19 188.01 24.73 188.01 24.73 187.5 20.65 187.5 20.65 194.69 24.78 194.69 24.78 194.17"/><polygon class="cls-1" points="30.26 194.17 26.67 194.17 26.67 191.32 29.95 191.32 29.95 190.8 26.67 190.8 26.67 188.01 30.21 188.01 30.21 187.5 26.12 187.5 26.12 194.69 30.26 194.69 30.26 194.17"/><polygon class="cls-1" points="32.14 188.5 36.38 194.69 36.86 194.69 36.86 187.5 36.32 187.5 36.32 193.68 32.07 187.5 31.6 187.5 31.6 194.69 32.14 194.69 32.14 188.5"/><path class="cls-1" d="M43.6,194.27a2,2,0,0,1-2.16-1.44l-.47.27a2.57,2.57,0,0,0,2.63,1.7c1.42,0,2.36-.78,2.36-2s-1.11-1.65-2.38-2.07c-1-.34-1.76-.6-1.76-1.47a1.44,1.44,0,0,1,1.62-1.38,1.89,1.89,0,0,1,1.85,1.24l.46-.26a2.42,2.42,0,0,0-2.31-1.51,2,2,0,0,0-2.17,1.93c0,1.26,1.07,1.6,2.27,2s1.86.67,1.86,1.54S44.8,194.27,43.6,194.27Z"/><polygon class="cls-1" points="47.79 188.3 50.45 192.71 50.54 192.71 53.2 188.3 53.2 194.69 53.74 194.69 53.74 187.5 53.06 187.5 50.49 191.75 47.92 187.5 47.24 187.5 47.24 194.69 47.79 194.69 47.79 188.3"/><path class="cls-1" d="M56.07,192.86h3.6l.7,1.83H61l-2.79-7.19h-.57l-2.79,7.19h.57Zm1.81-4.7,1.6,4.18h-3.2Z"/><path class="cls-1" d="M62.54,191.74h2.27l1.73,2.95h.62l-1.78-3a2.12,2.12,0,0,0-.55-4.17H62v7.19h.54Zm0-3.73h2.29a1.61,1.61,0,0,1,0,3.21H62.54Z"/><polygon class="cls-1" points="69.74 194.69 70.3 194.69 70.3 188.01 72.56 188.01 72.56 187.5 67.48 187.5 67.48 188.01 69.74 188.01 69.74 194.69"/><path class="cls-1" d="M79.76,194.8a3.51,3.51,0,0,0,3.1-1.76l-.48-.27a2.93,2.93,0,0,1-2.62,1.5,3.18,3.18,0,1,1,0-6.36,2.92,2.92,0,0,1,2.6,1.48l.48-.28a3.52,3.52,0,0,0-3.08-1.73,3.71,3.71,0,1,0,0,7.42Z"/><rect class="cls-1" x="84.15" y="187.5" width="0.54" height="7.19"/><polygon class="cls-1" points="88.08 194.69 88.64 194.69 88.64 188.01 90.9 188.01 90.9 187.5 85.82 187.5 85.82 188.01 88.08 188.01 88.08 194.69"/><polygon class="cls-1" points="93.86 194.69 94.4 194.69 94.4 191.73 97.02 187.5 96.4 187.5 94.13 191.2 91.85 187.5 91.24 187.5 93.86 191.73 93.86 194.69"/><path class="cls-1" d="M104.09,194.8a3.52,3.52,0,0,0,3.1-1.76l-.48-.27a3,3,0,0,1-2.62,1.5,3.18,3.18,0,1,1,0-6.36,2.9,2.9,0,0,1,2.59,1.48l.49-.28a3.52,3.52,0,0,0-3.08-1.73,3.71,3.71,0,1,0,0,7.42Z"/><path class="cls-1" d="M111.77,194.8a3.71,3.71,0,1,0-3.7-3.71A3.69,3.69,0,0,0,111.77,194.8Zm0-6.89a3.18,3.18,0,1,1-3.16,3.18A3.15,3.15,0,0,1,111.77,187.91Z"/><path class="cls-1" d="M117.4,191.74h2.27l1.73,2.95H122l-1.78-3a2.12,2.12,0,0,0-.55-4.17h-2.83v7.19h.54Zm0-3.73h2.29a1.61,1.61,0,0,1,0,3.21H117.4Z"/><path class="cls-1" d="M123.7,191.94h1.9a2.22,2.22,0,1,0,0-4.44h-2.44v7.19h.54Zm0-3.93h1.9a1.71,1.71,0,0,1,0,3.42h-1.9Z"/><path class="cls-1" d="M132.43,194.8a3.71,3.71,0,1,0-3.7-3.71A3.69,3.69,0,0,0,132.43,194.8Zm0-6.89a3.18,3.18,0,1,1-3.16,3.18A3.15,3.15,0,0,1,132.43,187.91Z"/><path class="cls-1" d="M138.06,191.74h2.27l1.73,2.95h.63l-1.79-3a2.12,2.12,0,0,0-.55-4.17h-2.83v7.19h.54Zm0-3.73h2.29a1.61,1.61,0,0,1,0,3.21h-2.29Z"/><path class="cls-1" d="M144.35,192.86H148l.69,1.83h.58l-2.78-7.19h-.58l-2.79,7.19h.57Zm1.81-4.7,1.6,4.18h-3.2Z"/><polygon class="cls-1" points="151.37 194.69 151.92 194.69 151.92 188.01 154.18 188.01 154.18 187.5 149.11 187.5 149.11 188.01 151.37 188.01 151.37 194.69"/><rect class="cls-1" x="155.31" y="187.5" width="0.54" height="7.19"/><path class="cls-1" d="M160.94,194.8a3.71,3.71,0,1,0-3.7-3.71A3.69,3.69,0,0,0,160.94,194.8Zm0-6.89a3.18,3.18,0,1,1-3.16,3.18A3.15,3.15,0,0,1,160.94,187.91Z"/><polygon class="cls-1" points="166.57 188.5 170.81 194.69 171.3 194.69 171.3 187.5 170.75 187.5 170.75 193.68 166.5 187.5 166.03 187.5 166.03 194.69 166.57 194.69 166.57 188.5"/><polygon class="cls-1" points="179.76 194.17 176.38 194.17 176.38 187.5 175.83 187.5 175.83 194.69 179.76 194.69 179.76 194.17"/><polygon class="cls-1" points="181.78 194.69 182.33 194.69 182.33 188.01 184.59 188.01 184.59 187.5 179.52 187.5 179.52 188.01 181.78 188.01 181.78 194.69"/><path class="cls-1" d="M191.81,191.09a3.42,3.42,0,0,0-3.38-3.59h-2.7v7.19h2.7A3.43,3.43,0,0,0,191.81,191.09ZM186.27,188h2.16a3.09,3.09,0,0,1,0,6.16h-2.16Z"/><path class="cls-1" d="M0,182.31V200H198.83V182.31ZM197.93,199.1H.9V183.21h197Z"/></g></g></svg>