<svg xmlns="http://www.w3.org/2000/svg" viewBox="0 0 557.44 200"><defs><style>.cls-1{fill:#4d4d4d;}</style></defs><title>c3</title><g id="Layer_2" data-name="Layer 2"><g id="Layer_1-2" data-name="Layer 1"><path class="cls-1" d="M227,141.56a24.55,24.55,0,0,0-3.71,3.71c-7.37,9.14-16.44,16.26-26.47,22.2a79,79,0,0,1-26.13,10.24c-7.42,1.35-14.88,2.85-22.38,3.3-9.6.59-19-.87-28.48-3.24a100.63,100.63,0,0,1-27.32-11,100.47,100.47,0,0,1-39.66-44.63c-4.08-9.44-7.73-19-8-29.48a33.26,33.26,0,0,0-.91-8.48,6.1,6.1,0,0,1,1.57-6.46C51.21,71.34,57.07,65,62.52,58.42c2.71-3.29,5.48-7,6.7-10.94C71,41.83,64.75,36.79,60.63,35c-3.53-1.56-8.22.54-11.76,4.58q-9,10.23-18.13,20.27c-.81.89-2.19,1.26-3.89,2.18V57.12q0-21.46,0-42.93C26.83,5.09,21.68,0,12.62,0,5.1,0,.09,4.9.09,12.3.08,46.45.16,80.6,0,114.75a12.31,12.31,0,0,0,6.61,11.43c4.53,2.55,9.47,2.16,14.17-.56s6.1-7.18,6.81-12.51a8.68,8.68,0,0,1,2.76,3.49c1.73,4.46,2.79,9.25,5,13.41a236.68,236.68,0,0,0,13.08,21.43c8.91,12.94,20.57,23.1,34,31.09a177.54,177.54,0,0,0,20.85,10.14,88,88,0,0,0,33.33,7.26c6.64.12,13.3.07,19.94,0a50.42,50.42,0,0,0,6.7-.71,123.75,123.75,0,0,0,34-10.47C214.06,180.86,227.71,169,239.6,155c3.21-3.79,2.94-8.87-.64-12.52C235.11,138.53,231.14,138.19,227,141.56Z"/><path class="cls-1" d="M345.3,127.48c6.92,1.37,15.1-2,15.5-10,.68-13.69.57-27.47-.12-41.16-.2-4-2.89-8.27-5.53-11.54-5-6.18-12-8.12-20-7.86a26.5,26.5,0,0,0-19.35,8.8,17.58,17.58,0,0,1-2.63,1.87c-1.65-6.9-7.63-11.5-14.5-10.5-4.82.7-11,6.52-10.77,12.76.47,15,.18,30,.14,45.05,0,4.26,2.17,7.49,5.17,10,4.39,3.64,9.57,3.87,14.64,1.56,5.25-2.4,7.43-7,7.63-12.56.34-9.08.51-18.17.74-27.26.11-4.46,1.89-6.7,6.2-7.74,5.33-1.29,10,.92,10.93,5.42A41.15,41.15,0,0,1,334.2,92c.11,7-.19,13.95.1,20.91C334.65,121,337.17,125.88,345.3,127.48Z"/><path class="cls-1" d="M236.81,98.87c4.8.11,9.61,0,14.42,0,5.94,0,11.88.18,17.81-.05,10.08-.38,12.59-5,11.69-12.87a31.64,31.64,0,0,0-6.25-15.15c-5-6.87-11.69-11.65-19.68-13.5-5.73-1.33-12-.68-18.05-.24-10.82.79-19.09,6.35-25.18,15.13-5,7.2-5.35,15.43-5.19,23.88.24,13.24,6.36,22.92,17.87,28.52,14.32,7,29.12,6,43.45-.54,2.9-1.33,5.4-3.93,7.58-6.39a7.52,7.52,0,0,0,.29-10.09c-3.4-3.95-7.78-5-12.07-2.48-5,2.91-9.86,5.6-15.78,6.43-6.57.92-12.76-2.88-13.72-9.3C233.68,100.12,234.23,98.8,236.81,98.87Zm-2.36-17.76c1.25-5.13,5.07-7.91,11-7.66S255.64,77,256,82.06c.05.69-1.4,2.07-2.25,2.15-2.86.27-5.75.1-8.63.1v0c-2.76,0-5.52,0-8.28,0C234.68,84.32,233.9,83.41,234.45,81.11Z"/><path class="cls-1" d="M57.43,84.07c-1,7.4-1.33,15,1.57,22.68,4.75,12.5,14,19.17,26.24,21.5a53.63,53.63,0,0,0,28.42-2c4.8-1.73,9.24-4.21,12.26-8.51,4.08-5.79,1.79-11.54-4.32-13.64-4-1.38-7.63.63-10.9,2.88a22.93,22.93,0,0,1-17.23,4.08c-4.72-.77-7.87-3.2-8.72-8.19-.45-2.63-.14-4.15,3.07-4,5.29.16,10.58,0,15.86,0,0,.11,0,.22,0,.33,6.92-.35,13.84-.61,20.75-1.08,3.41-.23,6.1-2.06,6.25-5.62.18-4.27.66-9-.86-12.79-5-12.4-13.74-20.8-27.68-22.81-11.42-1.65-22-.13-31.62,6.64C63.37,68.63,58.61,75.72,57.43,84.07ZM95.22,73.39c6.06-.2,9.54,2.32,11.09,7.58.84,2.8-.2,3.47-2.7,3.4s-5.29,0-7.93,0A75.53,75.53,0,0,1,87,84.22a3.36,3.36,0,0,1-2-2.6C85.73,76.58,89.67,73.57,95.22,73.39Z"/><path class="cls-1" d="M495.2,82.18a48.55,48.55,0,0,0-7.4-13.84,28.44,28.44,0,0,0-18.73-11.15c-5.42-.87-11.1-.22-16.66-.17-7.51.07-13.85,3.56-19.11,8.28-11.1,9.93-14.23,22.5-10.88,37,2.66,11.55,9.55,19.51,20.24,23.6C454.6,130.48,467,130,479.1,126c4.8-1.6,9.33-4.14,12.06-8.93a9,9,0,0,0-1.23-10.8c-3.32-3.27-8.26-3.25-13.65.35a25.33,25.33,0,0,1-16.44,4.58c-5.57-.41-8.82-2.73-10.38-7.88-1.06-3.47-.44-4.38,3.08-4.4,5.29,0,10.58,0,15.86,0s10.85.3,16.22-.12c2.92-.22,6.26-1,8.49-2.71C497.88,92.39,496.63,86.73,495.2,82.18Zm-27.39,2.17c-5.85,0-11.7,0-17.78,0-.75-5.71,2.55-10,7.77-10.72,6.73-.87,10.65.87,13,5.78C472.35,82.77,471.42,84.34,467.81,84.35Z"/><path class="cls-1" d="M138.43,83.27c4.18,12.21,8.17,24.49,12.7,36.57,1.28,3.42,3.76,6.86,8.14,7.18a154.26,154.26,0,0,0,16.78.59c3.62-.13,7-1.87,8.46-5.55,2.61-6.41,5.18-12.83,7.44-19.36,3.28-9.53,6.16-19.2,9.43-28.74,2.43-7.08-.86-13.72-8.55-16.57-5.55-2.06-13.28,2-15.1,8.3-2.16,7.43-3.94,15-6,22.44-.7,2.52-1.73,4.94-2.61,7.41l-1.26-.46c-3-9.88-5.68-19.87-9.16-29.58-2.28-6.34-8-10.11-14.57-7.93-7.61,2.53-11,7.75-9.2,15C135.85,76.21,137.22,79.72,138.43,83.27Z"/><path class="cls-1" d="M415.25,118.83c1.54-3.85-.27-10.92-5.21-11.35-2.11-.19-4.21-.53-6.33-.66-3.6-.2-5.15-1.67-5.21-5.33-.06-3.84,0-7.69,0-11.54V75.83c4.64-.79,8.76-1.24,12.72-2.26,2.89-.75,5-5.06,4.6-8.11a7.37,7.37,0,0,0-6.25-6.27c-3.52-.44-7.07-.71-10.89-1.09-.49-5.85-2.56-9.94-8.62-12.18-9.28-3.42-18.31,2.42-18.31,12.2,0,18,.19,36.08-.1,54.11-.09,5.48,5.06,12.75,11.33,14.16a49.7,49.7,0,0,0,19.77.59C408,126,412.93,124.63,415.25,118.83Z"/><path class="cls-1" d="M557.22,66.8c-.25-7.9-8.17-12-15.22-9a18.74,18.74,0,0,0-10,10.44,11.37,11.37,0,0,1-1.59,2.32c-2-3.86-3.08-8.26-5.87-10.77A11.3,11.3,0,0,0,512,57.92c-5.12,2.34-8.12,6-8.13,11.8,0,14.68-.19,29.37.07,44,.14,7.43,3,12,11.09,13.81,6.37,1.46,15.38-3.38,15.62-11.15.19-6.45.5-12.9.64-19.34.15-7,4.54-12.21,11.35-13.34C552.54,82.1,557.53,76.5,557.22,66.8Z"/><polygon class="cls-1" points="263.6 176.67 275.25 176.67 275.25 174.7 265.81 174.7 265.81 168.56 275.06 168.56 275.06 166.59 265.81 166.59 265.81 160.86 275.25 160.86 275.25 158.89 263.6 158.89 263.6 176.67"/><path class="cls-1" d="M285.27,163.47a5.51,5.51,0,0,0-2.59.66,6.5,6.5,0,0,0-2,1.53v-1.87h-2v12.88h2v-9.41a4.87,4.87,0,0,1,1.64-1.41,4.43,4.43,0,0,1,2.17-.59,3.09,3.09,0,0,1,2.14.68,3,3,0,0,1,.74,2.31v8.42h2v-9Q289.37,163.48,285.27,163.47Z"/><path class="cls-1" d="M295.37,165.87v-2.08h-2v12.88h2v-9.12a4.28,4.28,0,0,1,1.52-1.41,3.86,3.86,0,0,1,2-.64,4,4,0,0,1,.8.08v-2.05A5.27,5.27,0,0,0,295.37,165.87Z"/><rect class="cls-1" x="302.17" y="163.79" width="2" height="12.87"/><path class="cls-1" d="M303.15,159.26a1.37,1.37,0,0,0-1.33,1.36,1.25,1.25,0,0,0,.4.95,1.36,1.36,0,0,0,1.89,0,1.25,1.25,0,0,0,.4-.95,1.37,1.37,0,0,0-1.36-1.36Z"/><path class="cls-1" d="M314,165.26a3.86,3.86,0,0,1,3.28,1.68l1.33-1.23a5.66,5.66,0,0,0-4.72-2.24,6,6,0,0,0-4.64,1.92,7.46,7.46,0,0,0,0,9.67,6.06,6.06,0,0,0,4.64,1.93,5.66,5.66,0,0,0,4.72-2.24l-1.33-1.23A3.91,3.91,0,0,1,314,175.2a4.05,4.05,0,0,1-3.24-1.4,5.89,5.89,0,0,1,0-7.15A4.08,4.08,0,0,1,314,165.26Z"/><path class="cls-1" d="M328,163.47a5.5,5.5,0,0,0-2.61.66,6.27,6.27,0,0,0-2,1.53v-6.77h-2v17.78h2v-9.41a5.16,5.16,0,0,1,1.66-1.41,4.41,4.41,0,0,1,2.15-.59,3.12,3.12,0,0,1,2.16.67,2.9,2.9,0,0,1,.74,2.26v8.48h2v-9.09Q332.07,163.47,328,163.47Z"/><rect class="cls-1" x="336.07" y="163.79" width="2" height="12.87"/><path class="cls-1" d="M337.06,159.26a1.32,1.32,0,0,0-.94.4,1.35,1.35,0,0,0-.4,1,1.33,1.33,0,0,0,1.34,1.33,1.33,1.33,0,0,0,1-.38,1.29,1.29,0,0,0,.4-.95,1.37,1.37,0,0,0-1.36-1.36Z"/><path class="cls-1" d="M348.65,163.47a5.44,5.44,0,0,0-2.58.66,6.27,6.27,0,0,0-2,1.53v-1.87h-2v12.88h2v-9.41a4.78,4.78,0,0,1,1.64-1.41,4.4,4.4,0,0,1,2.17-.59,3.08,3.08,0,0,1,2.13.68,3,3,0,0,1,.75,2.31v8.42h2v-9Q352.76,163.48,348.65,163.47Z"/><path class="cls-1" d="M366.06,165.74a5.16,5.16,0,0,0-4.32-2.27,5.25,5.25,0,0,0-4.15,1.82,8.3,8.3,0,0,0,0,9.74,5.27,5.27,0,0,0,4.15,1.8,4.9,4.9,0,0,0,2.45-.64,5.64,5.64,0,0,0,1.87-1.65v1.84a3.49,3.49,0,0,1-1.18,2.91,4.54,4.54,0,0,1-2.95,1,5.15,5.15,0,0,1-4.19-1.76l-1,1.49a6.12,6.12,0,0,0,2.29,1.51,9.15,9.15,0,0,0,2.91.41,7,7,0,0,0,4.39-1.32,5,5,0,0,0,1.74-4.27V163.79h-2Zm0,7.22a4.76,4.76,0,0,1-3.84,2.11,3.69,3.69,0,0,1-3-1.37,5.42,5.42,0,0,1-1.12-3.54,5.48,5.48,0,0,1,1.1-3.54,3.69,3.69,0,0,1,3-1.36,4.51,4.51,0,0,1,2.24.6,4.26,4.26,0,0,1,1.6,1.48Z"/><polygon class="cls-1" points="381.22 158.89 379.01 158.89 379.01 176.67 389.49 176.67 389.49 174.7 381.22 174.7 381.22 158.89"/><path class="cls-1" d="M393.51,159.26a1.37,1.37,0,0,0-1.33,1.36,1.25,1.25,0,0,0,.4.95,1.36,1.36,0,0,0,1.89,0,1.25,1.25,0,0,0,.4-.95,1.37,1.37,0,0,0-1.36-1.36Z"/><rect class="cls-1" x="392.53" y="163.79" width="2" height="12.87"/><polygon class="cls-1" points="403.05 174.35 398.76 163.79 396.6 163.79 401.96 176.67 404.15 176.67 409.5 163.79 407.32 163.79 403.05 174.35"/><path class="cls-1" d="M417.18,163.47a5.94,5.94,0,0,0-4.53,2,6.79,6.79,0,0,0-1.81,4.79,6.67,6.67,0,0,0,1.84,4.89,6.31,6.31,0,0,0,4.71,1.88,6.93,6.93,0,0,0,5.12-2l-1-1.31a5.31,5.31,0,0,1-4,1.63,4.35,4.35,0,0,1-3.25-1.28,4.87,4.87,0,0,1-1.39-3.18h10.42v-.5a7.39,7.39,0,0,0-1.66-4.95A5.65,5.65,0,0,0,417.18,163.47Zm-4.24,5.95a4.9,4.9,0,0,1,1.19-3,3.76,3.76,0,0,1,3-1.3,3.83,3.83,0,0,1,3.12,1.32,4.67,4.67,0,0,1,1.12,3Z"/><path class="cls-1" d="M432.91,169.63c-.78-.23-1.56-.43-2.33-.6a7.84,7.84,0,0,1-2-.69,1.35,1.35,0,0,1-.83-1.21,1.75,1.75,0,0,1,.78-1.46,3.4,3.4,0,0,1,2.08-.57,4.69,4.69,0,0,1,3.83,1.63l.94-1.39a6.5,6.5,0,0,0-4.77-1.87,5.35,5.35,0,0,0-3.51,1.07,3.29,3.29,0,0,0-1.29,2.64,2.89,2.89,0,0,0,.82,2.15,4.58,4.58,0,0,0,2,1.14c.78.22,1.56.42,2.34.59a6.87,6.87,0,0,1,2,.74,1.52,1.52,0,0,1,.83,1.35,1.93,1.93,0,0,1-.8,1.6,3.61,3.61,0,0,1-2.24.61,5.6,5.6,0,0,1-2.41-.53,5.19,5.19,0,0,1-1.83-1.31l-1,1.44a6.82,6.82,0,0,0,5.2,2,5.78,5.78,0,0,0,3.73-1.09,3.47,3.47,0,0,0,1.33-2.8,3.14,3.14,0,0,0-.82-2.26A4.52,4.52,0,0,0,432.91,169.63Z"/><path class="cls-1" d="M440,174a1.35,1.35,0,0,0-1,.43,1.37,1.37,0,0,0-.41,1,1.43,1.43,0,0,0,.35,1,1.24,1.24,0,0,0,.92.38,1.07,1.07,0,0,0,.38-.05,3.14,3.14,0,0,1-.58,1.34,4.15,4.15,0,0,1-1.15,1.14l1,.82a5.48,5.48,0,0,0,1.57-1.77,4.49,4.49,0,0,0,.62-2.25,2.12,2.12,0,0,0-.5-1.48A1.54,1.54,0,0,0,440,174Z"/><polygon class="cls-1" points="452.07 176.67 463.72 176.67 463.72 174.7 454.28 174.7 454.28 168.56 463.53 168.56 463.53 166.59 454.28 166.59 454.28 160.86 463.72 160.86 463.72 158.89 452.07 158.89 452.07 176.67"/><polygon class="cls-1" points="471.69 174.35 467.4 163.79 465.24 163.79 470.6 176.67 472.78 176.67 478.14 163.79 475.95 163.79 471.69 174.35"/><path class="cls-1" d="M485.82,163.47a5.91,5.91,0,0,0-4.53,2,6.79,6.79,0,0,0-1.82,4.79,6.71,6.71,0,0,0,1.84,4.89A6.34,6.34,0,0,0,486,177a7,7,0,0,0,5.12-2l-1-1.31a5.31,5.31,0,0,1-4,1.63,4.38,4.38,0,0,1-3.26-1.28,4.91,4.91,0,0,1-1.38-3.18H492v-.5a7.39,7.39,0,0,0-1.66-4.95A5.66,5.66,0,0,0,485.82,163.47Zm-4.24,5.95a4.84,4.84,0,0,1,1.19-3,3.73,3.73,0,0,1,3-1.3,3.83,3.83,0,0,1,3.12,1.32,4.67,4.67,0,0,1,1.12,3Z"/><path class="cls-1" d="M497.22,165.87v-2.08h-2v12.88h2v-9.12a4.36,4.36,0,0,1,1.52-1.41,3.86,3.86,0,0,1,2-.64,4.09,4.09,0,0,1,.8.08v-2.05A5.28,5.28,0,0,0,497.22,165.87Z"/><path class="cls-1" d="M508.55,174.35l-4.29-10.56H502.1l5.39,13-.86,1.95a2.21,2.21,0,0,1-.77,1.06,2,2,0,0,1-1.15.3,2.56,2.56,0,0,1-1.09-.22l-.32,1.82a5.64,5.64,0,0,0,1.47.18,3.88,3.88,0,0,0,3.78-2.61L515,163.79h-2.18Z"/><path class="cls-1" d="M526.41,165.74a5.41,5.41,0,0,0-8.49-.41,8.43,8.43,0,0,0,0,9.83,5.23,5.23,0,0,0,4.15,1.83,5.15,5.15,0,0,0,4.34-2.24v1.92h2V158.89h-2Zm0,7.44a4.4,4.4,0,0,1-1.62,1.44,4.62,4.62,0,0,1-2.24.58,3.69,3.69,0,0,1-3-1.38,6.33,6.33,0,0,1,0-7.16,3.67,3.67,0,0,1,3-1.4,4.52,4.52,0,0,1,2.22.6,4.39,4.39,0,0,1,1.64,1.48Z"/><path class="cls-1" d="M541.07,164.54a5.73,5.73,0,0,0-3.6-1.07,6.85,6.85,0,0,0-5.14,2.14l.93,1.38a5.26,5.26,0,0,1,4-1.78,3.63,3.63,0,0,1,2.34.72,2.39,2.39,0,0,1,.91,2v2.31a5.34,5.34,0,0,0-4.27-1.75,4.76,4.76,0,0,0-3.15,1.1,4.28,4.28,0,0,0,0,6.25,4.68,4.68,0,0,0,3.14,1.15,5.52,5.52,0,0,0,4.27-1.79v1.47h2v-8.85A3.86,3.86,0,0,0,541.07,164.54Zm-.61,9.41a4.07,4.07,0,0,1-3.55,1.6,3.31,3.31,0,0,1-2.28-.79,2.56,2.56,0,0,1-.89-2,2.62,2.62,0,0,1,.89-2,3.36,3.36,0,0,1,2.28-.79,4.1,4.1,0,0,1,3.55,1.6Z"/><path class="cls-1" d="M555.25,163.79,551,174.35l-4.29-10.56h-2.16l5.38,13-.85,1.95a2.16,2.16,0,0,1-.78,1.06,2,2,0,0,1-1.14.3,2.53,2.53,0,0,1-1.09-.22l-.32,1.82a5.56,5.56,0,0,0,1.46.18,3.89,3.89,0,0,0,3.79-2.61l6.45-15.49Z"/></g></g></svg>