<svg xmlns="http://www.w3.org/2000/svg" viewBox="0 0 199.93 200"><defs><style>.cls-1{fill:#4d4d4d;}</style></defs><title>c4</title><g id="Layer_2" data-name="Layer 2"><g id="Layer_1-2" data-name="Layer 1"><path class="cls-1" d="M198.76,95.1A10.4,10.4,0,0,0,180.92,94c-.17.24-.23.65-.75.51,0-.15-.09-.32-.11-.5-.14-1.36-.24-2.73-.42-4.08-.22-1.61-.51-3.2-.76-4.8a6.29,6.29,0,0,1,0-.9,5,5,0,0,1,.73.46,10.25,10.25,0,0,0,8,2.6,9.93,9.93,0,0,0,5.3-2.26,10.34,10.34,0,0,0,3.59-5.29A10.66,10.66,0,0,0,188,66.41a9.53,9.53,0,0,0-5.52.72,10.52,10.52,0,0,0-6,6.37,2.17,2.17,0,0,1-.15.35c0,.05-.1.08-.25.21a2.67,2.67,0,0,1-.43-.66,61.9,61.9,0,0,0-3.5-8.37,2.93,2.93,0,0,1-.11-.63c.45.16.8.26,1.12.4a10.33,10.33,0,0,0,4.05,1,10.21,10.21,0,0,0,7.15-2.71,10,10,0,0,0,3.41-9.91,10.35,10.35,0,0,0-6.36-7.63,9.61,9.61,0,0,0-4.18-.82,10,10,0,0,0-3.79.85,10.5,10.5,0,0,0-5.75,6,8.35,8.35,0,0,0-.67,3c0,.21-.05.43-.07.65-.55.1-.71-.31-.92-.59-.93-1.26-1.82-2.55-2.77-3.79-.81-1.06-1.69-2.07-2.54-3.11a5,5,0,0,1-.39-.59,2.59,2.59,0,0,1,.68-.06,10.74,10.74,0,0,0,3.62.15A10.57,10.57,0,0,0,172.36,42a9.82,9.82,0,0,0,1.51-5.64,10.56,10.56,0,0,0-1.7-5.22,10.4,10.4,0,0,0-6.9-4.74,9.79,9.79,0,0,0-7.82,1.7,10.5,10.5,0,0,0-4.64,9.06,9.69,9.69,0,0,0,.22,1.5c0,.24.09.48.14.72-.44.23-.65,0-.9-.22-1.64-1.31-3.29-2.62-5-3.91-.61-.47-1.25-.89-1.87-1.34-.24-.17-.45-.39-.8-.69a2.44,2.44,0,0,1,.59-.19,10.83,10.83,0,0,0,9.7-7.79,10.59,10.59,0,0,0-4.29-11.39A10.17,10.17,0,0,0,144.82,12a10.33,10.33,0,0,0-8.14,4,10.08,10.08,0,0,0-2.3,7.85,10.73,10.73,0,0,0,1,3.27l.27.58a.6.6,0,0,1-.81.08,70.18,70.18,0,0,0-8.46-3.52,2.77,2.77,0,0,1-.48-.33,3,3,0,0,1,.57-.37,10.41,10.41,0,0,0,6.88-7.24,9.22,9.22,0,0,0,.21-4.63,10.69,10.69,0,0,0-3.81-6.24,10,10,0,0,0-7.67-2.28,10.38,10.38,0,0,0-7.51,4.6,10,10,0,0,0-1.86,5.63,10.42,10.42,0,0,0,2.51,7,2.59,2.59,0,0,1,.45.73,40,40,0,0,1-5.16-.63c-1.69-.19-3.39-.36-5.13-.65A15.12,15.12,0,0,0,109.07,16a10.23,10.23,0,0,0,.33-10.21,10.77,10.77,0,0,0-3.55-3.94C100.92-1.5,95.25,0,92,4s-3.7,11.31,2.81,15.67a.33.33,0,0,1,0,.1.13.13,0,0,1-.05.07.93.93,0,0,1-.26.1l-10,1.19a7.9,7.9,0,0,1,.49-.74A10.45,10.45,0,0,0,87,16.55a10,10,0,0,0-1.47-8.92,10.31,10.31,0,0,0-7-4.45,10,10,0,0,0-8,2.15A10.7,10.7,0,0,0,66.82,11a10.53,10.53,0,0,0,6.86,12.56,1.73,1.73,0,0,1,.43.31c-.14.14-.25.35-.42.41a76.45,76.45,0,0,0-8.36,3.5,3.64,3.64,0,0,1-.83.16,14.12,14.12,0,0,0,1.31-4.06,11.32,11.32,0,0,0-.34-4.25,10.67,10.67,0,0,0-2-3.68,11.38,11.38,0,0,0-3.3-2.72,9.61,9.61,0,0,0-4-1.2A10.67,10.67,0,0,0,45,20.85a9.88,9.88,0,0,0,2.42,8.45,10.6,10.6,0,0,0,7.82,3.77c.15.55-.26.66-.52.86-1.56,1.16-3.13,2.3-4.68,3.47-.69.52-1.33,1.1-2,1.65-.13.1-.23.25-.37.3s-.4.13-.51,0-.11-.34-.07-.5A9,9,0,0,0,46.67,33a10.7,10.7,0,0,0-7-6.36A9.49,9.49,0,0,0,35,26.39a10.52,10.52,0,0,0-6,3.47,10.66,10.66,0,0,0-2.64,6.72A9.53,9.53,0,0,0,27,40.21a10.3,10.3,0,0,0,6,6.24,9.81,9.81,0,0,0,5.61.64l1.24-.22a6.74,6.74,0,0,1-.42.81q-2.69,3.49-5.38,7c-.18.23-.42.42-.81.81-.29-5.09-2.73-8.4-7.23-10.15a9.24,9.24,0,0,0-6.55,0,10.52,10.52,0,0,0-6.76,13.21,10.34,10.34,0,0,0,3.55,5,10.58,10.58,0,0,0,5.68,2.31,11.31,11.31,0,0,0,6-1.38l.15.13a8.64,8.64,0,0,1-.32,1c-1,2.33-2,4.64-2.94,7-.15.35-.22.73-.37,1.09a1.83,1.83,0,0,1-.34.43c-.68-1.2-1.28-2.38-2-3.49a8.85,8.85,0,0,0-2.94-2.7,9.83,9.83,0,0,0-3.63-1.4,9.55,9.55,0,0,0-4,.12,10.61,10.61,0,0,0-3.65,1.61,10.29,10.29,0,0,0-3,14.18A10.38,10.38,0,0,0,21.18,84.2c.09.24.21.39.18.5a65.34,65.34,0,0,0-1.25,9.65c0,.06-.06.11-.1.16-.44.18-.52-.2-.7-.45A10.9,10.9,0,0,0,14,90,10.4,10.4,0,0,0,2.5,93.47a10.34,10.34,0,0,0-2.2,5,5,5,0,0,1-.3.9v1.34c.18.64.37,1.28.55,1.91a10.52,10.52,0,0,0,7.29,7.46,9.18,9.18,0,0,0,4.43.29,10.75,10.75,0,0,0,7.11-4.58,4.39,4.39,0,0,1,.57-.54c.46,3.55.9,6.92,1.34,10.35a39.09,39.09,0,0,0-3.59-2.18,9.26,9.26,0,0,0-4.18-.83,10.16,10.16,0,0,0-4.06,1,10.86,10.86,0,0,0-5.62,6.1A10.52,10.52,0,1,0,24,125.78c.15.14.33.23.38.37a83.29,83.29,0,0,0,3.75,9s0,.06,0,.15c-.31.25-.62.1-.93-.06a9.38,9.38,0,0,0-5.66-1,10.31,10.31,0,0,0-6.35,3.24,10.06,10.06,0,0,0-2.71,5.07,10.17,10.17,0,0,0,2.44,9.07,10.49,10.49,0,0,0,5.2,3.25,9.81,9.81,0,0,0,5.55-.11,10.57,10.57,0,0,0,5.1-3.38,10.07,10.07,0,0,0,2.44-6c0-.19,0-.38.07-.57l.07-.07c.42-.14.54.24.72.47,1.28,1.71,2.54,3.44,3.82,5.14.52.69,1.1,1.33,1.64,2a5.23,5.23,0,0,1,.32.64,6.88,6.88,0,0,1-.94-.08C33.52,151.7,28,155.4,26.7,160.64a10,10,0,0,0,2.65,9.78,10.29,10.29,0,0,0,15,.06,10.23,10.23,0,0,0,3-8.55,10.81,10.81,0,0,0-.29-1.28c.47-.34.75,0,1,.21,1.32,1.06,2.62,2.14,4,3.17.88.69,1.81,1.31,2.72,2,.27.2.62.35.56.86a10.55,10.55,0,0,0-8.75,5,9.73,9.73,0,0,0-1.5,7.5,10.68,10.68,0,0,0,11.19,8.58,9.91,9.91,0,0,0,4.9-1.75,11.32,11.32,0,0,0,3.56-3.94,10.27,10.27,0,0,0,1.2-5.06,12.49,12.49,0,0,0-1.37-5l.16-.16a5.07,5.07,0,0,1,.76.22,69.8,69.8,0,0,0,8.28,3.45,3.88,3.88,0,0,1,.48.32c-.21.17-.34.36-.52.42a10.45,10.45,0,0,0-6.16,5.37,9.81,9.81,0,0,0-1,6.23,10.51,10.51,0,0,0,4.34,6.85,9.68,9.68,0,0,0,4.44,1.88A10.12,10.12,0,0,0,82,195.52a10.46,10.46,0,0,0,5.29-7.27A10,10,0,0,0,85,179.67c-.21-.25-.61-.42-.43-.84l10,1.16c.07,0,.13.13.24.27a5.93,5.93,0,0,1-.56.46,10.35,10.35,0,0,0,0,17.36,9.91,9.91,0,0,0,4.51,1.71,5,5,0,0,1,.7.21h1.34a7,7,0,0,1,.89-.27,10.28,10.28,0,0,0,7.64-5.47,9.86,9.86,0,0,0,.71-8.13,10.28,10.28,0,0,0-4-5.33c-.24-.17-.46-.37-.73-.58.2-.15.27-.24.35-.25a87,87,0,0,0,10.09-1.32,3,3,0,0,1-.3.72,10.28,10.28,0,0,0,.43,14.4,10.07,10.07,0,0,0,5.59,2.94,9.92,9.92,0,0,0,5-.39,10.61,10.61,0,0,0,6.17-5.41,9.64,9.64,0,0,0,.46-8,10.4,10.4,0,0,0-6.6-6.45c-.15,0-.25-.24-.38-.36.15-.13.28-.32.45-.39,2.18-.9,4.37-1.78,6.54-2.68.53-.21,1-.49,1.56-.72.25-.11.52-.18,1-.34a4.14,4.14,0,0,1-.19.83,10.25,10.25,0,0,0,2.23,12.31,10.57,10.57,0,0,0,7,2.88,9.85,9.85,0,0,0,6.24-2.07,10.43,10.43,0,0,0-3.45-18.59c-.85-.23-1.73-.32-2.62-.47-.16-.4.18-.52.43-.7,1-.69,1.94-1.35,2.87-2.07,1.31-1,2.59-2.07,3.88-3.11.3-.24.55-.56,1.07-.35a10.23,10.23,0,0,0,3.33,10.48,9.78,9.78,0,0,0,6.89,2.65A10.68,10.68,0,0,0,173.84,164a9.63,9.63,0,0,0-.9-4.92,10.81,10.81,0,0,0-7.49-6.15,11,11,0,0,0-5,.19,3.31,3.31,0,0,1,.3-.76,67.77,67.77,0,0,0,5.56-7.18,5.81,5.81,0,0,1,.74-.71,10.67,10.67,0,0,0,5.82,9.58,9.53,9.53,0,0,0,7.41.82,10.48,10.48,0,0,0,1.49-19.76,10.1,10.1,0,0,0-9.32.46c-.37-.25-.27-.47-.15-.72.59-1.27,1.22-2.52,1.76-3.82s1.12-2.9,1.68-4.35c.1-.26.22-.51.43-1a5.72,5.72,0,0,1,.43.76,10.48,10.48,0,0,0,4.1,5.37,10.79,10.79,0,0,0,3.85,1.6c5,1.13,9.81-2.1,11.58-6.11a10.44,10.44,0,0,0-2.85-12.14,11,11,0,0,0-5.21-2.47,9.23,9.23,0,0,0-5.77.85,29.44,29.44,0,0,0-2.63,1.7l-.82.5c.29-1.88.57-3.55.79-5.23s.39-3.35.58-5c.25-.18.41,0,.59.2a17.7,17.7,0,0,0,1.46,1.76,10,10,0,0,0,5.58,2.9c4.31.66,7.63-.94,10.24-4.31a11.61,11.61,0,0,0,1.89-4.34V98.21A24.22,24.22,0,0,0,198.76,95.1Zm-98.64,82.62A77.77,77.77,0,0,1,22.3,99.85c0-43.16,35.49-78.16,78.25-77.58,41.88-.18,77.66,34.42,77.34,78.28A77.75,77.75,0,0,1,100.12,177.72Z"/><path class="cls-1" d="M134.74,161.71l-2.41-3.52c.41-.89.39-.94-.39-1.34-.37-.19-.71-.42-1.07-.63-1.55-.88-2.54-.75-4,.53.17.49.54.56,1,.42a6.11,6.11,0,0,0,.77-.38,1.9,1.9,0,0,1,2.48.68c-1.49.86-2.93,1.79-4.46,2.53a49.65,49.65,0,0,1-4.85,2,1,1,0,0,0-.78.9,1.34,1.34,0,0,0,1.16.09c.79-.33,1.59-.63,2.38-1s1.08-.32,1.34.78l-1,.44a15.24,15.24,0,0,0-1.64.75c-.89.53-.94,1.08-.2,1.74a5.36,5.36,0,0,0,3,1.3,2.08,2.08,0,0,0,.66-.17,1,1,0,0,0-.51-.37,22.48,22.48,0,0,1-2.07-.92c-.56-.31-.5-.68.1-.94s1-.4,1.49-.62c.74-.33.72-.31,1.15.42s.55,1.8,1.73,1.91l-.57,1.08a4.1,4.1,0,0,0,.75-.2c.22-.13.39-.33.6-.47a.61.61,0,0,1,.86.11c.23.26.1.51-.1.76a1.27,1.27,0,0,1-1.08.53,14.89,14.89,0,0,1-1.88-.25c-.33-.07-.62-.17-.85.26.11.12.2.33.35.37.7.19,1.41.37,2.13.5a2.52,2.52,0,0,0,2.25-.83,1.2,1.2,0,0,0,.35-1.55,1.45,1.45,0,0,0-1.53-.75c-.27,0-.54.12-.81.19-.11-.27-.18-.48-.28-.68-.61-1.15-1.23-2.3-1.84-3.46-.39-.72-.23-1.1.52-1.36a5.46,5.46,0,0,0,.78-.35c1-.5,1.89-1,2.83-1.53.89.78.88.94-.08,1.48a15.11,15.11,0,0,0-1.64,1c-.86.62-.86,1.3,0,1.9a4.48,4.48,0,0,0,3.28.74c.12,0,.22-.16.46-.34-1.16-.43-2.53-.11-3.25-1.44.72-.42,1.41-.81,2.08-1.22.44-.27.69-.14.92.28s.55.86.83,1.28a1.07,1.07,0,0,0,1,.53c.46,0,.65-.29.44-.69A3.63,3.63,0,0,0,134.74,161.71Z"/><path class="cls-1" d="M78,166.3a1,1,0,0,0-.55,0,1.9,1.9,0,0,1-1.82-.22,4.31,4.31,0,0,1-.56-.81,6.3,6.3,0,0,1,.87-.5c.15-.06.37.05.56.06h.64c-.14-.94-.2-1-1-1.14-.37-.06-.78,0-.77-.62l1.06-.33a1.39,1.39,0,0,0-1-1.28c-.7-.29-1.39-.63-2.1-.91a1.15,1.15,0,0,1-.79-1,4.6,4.6,0,0,0-1.81-3.25,2.21,2.21,0,0,0-3.23.34,1,1,0,0,1-.89.4c-.56,0-.69.27-.44.79l.18.39c-.85,1.23-1.66,2.41-2.46,3.6a.8.8,0,0,0,.24,1.21c.48.25.59-.19.77-.47.7-1.07,1.39-2.14,2.1-3.2.17-.26.33-.59.73-.48a.58.58,0,0,0,.74-.26c.23-.35-.09-.5-.25-.72a.78.78,0,0,1-.07-.25c.6-.83,1.07-1.05,1.74-.84a3.05,3.05,0,0,1,1.83,3c-.22-.09-.43-.15-.62-.24-.46-.23-.9-.49-1.36-.71a.53.53,0,0,0-.79.28c-.13.33,0,.53.35.66.59.26,1.16.55,1.73.84s1.15.61,1.77,1l-.58,1.12a10.59,10.59,0,0,0-1-1,5.27,5.27,0,0,0-1.15-.66,1.76,1.76,0,0,0-2,.47,1.65,1.65,0,0,0,.15,1.79,3.3,3.3,0,0,0,1.13,1,8.31,8.31,0,0,0,1.78.41,6.46,6.46,0,0,0-.46,1.14c-.11.49.2.76.87.84q.49-1,1-2c.35-.71.69-1.43,1-2.15.18-.35.41-.59.82-.12-.79.76.1,1.07.48,1.61-.23.19-.41.32-.57.46a.89.89,0,0,0-.22,1,3.21,3.21,0,0,0,3.7,1.82.9.9,0,0,0,.44-.53C78.36,166.63,78.18,166.37,78,166.3Zm-8.73-3.07a.73.73,0,0,1-.35-.89.75.75,0,0,1,1-.42,2.72,2.72,0,0,1,1.78,1.48A2.65,2.65,0,0,1,69.31,163.23Z"/><path class="cls-1" d="M165.29,94.59c-.63,0-.83.29-.8.93s.15.66.8.66a2.57,2.57,0,0,0,.48,0,1.65,1.65,0,0,1,1.68.89c-.22.16-.36.29-.52.38l-1.77,1.13a.91.91,0,0,0-.52.84c0,.7,0,1.4,0,2.1,0,.4.08.71.49.82.83.22,1,.78.8,1.54a1.58,1.58,0,0,0,0,.38c0,.86,0,.86-.77,1.15-.91.36-1,.67-.6,1.75a3.49,3.49,0,0,0,.43-.07l5.56-1.75a1,1,0,0,0,.71-1,.87.87,0,0,0-.55-1c-1.42-.65-2.83-1.33-4.23-2-.4-.2-.89-.28-1.17-.65a1.55,1.55,0,0,1,0-.16c1-.72,2-1.46,3-2.17a.57.57,0,0,1,.78.11c.46.43.92.87,1.4,1.29.22.19.48.34.82.58.14-1.06.16-1.87-.72-2.44a11.8,11.8,0,0,1-1.38-1.18,4.88,4.88,0,0,1-.52-.65c.8,0,1.4,0,2,0s.66-.3.63-.87a.63.63,0,0,0-.73-.68C168.79,94.52,167,94.54,165.29,94.59Zm2,8.82,1.5.6,0,.28-1.48.39Z"/><path class="cls-1" d="M37.31,113.46c-.13-.7-.37-1-.86-1.1s-1.27-.09-1.9-.15a5.44,5.44,0,0,1-1.84-.27c.33-.19.53-.33.76-.44.83-.4,1.66-.8,2.5-1.18.42-.18.7-.39.57-.93-.2-.76-.28-.87-1-.92-1.08-.08-2.16-.19-3.24-.25a20.2,20.2,0,0,0-2.2,0c-.63,0-.79.31-.57.88a1,1,0,0,0,1,.71c.77,0,1.54,0,2.3,0a5.12,5.12,0,0,1,.78.13c-.33.2-.47.31-.64.39-.75.34-1.5.7-2.27,1-.43.18-.68.41-.59.93.17.9.31,1.09,1,1.16.95.09,1.9.16,2.85.24l.06.18a3.42,3.42,0,0,1-.51.33c-.61.27-1.24.51-1.85.77-1,.41-1.06.84-.49,1.77a1.5,1.5,0,0,0,.37-.05c1.74-.78,3.48-1.56,5.22-2.36C37.08,114.1,37.4,113.92,37.31,113.46Z"/><path class="cls-1" d="M44.45,131.79c-.33-.62-.64-1.25-1-1.85a5.91,5.91,0,0,0-.83-1.15,1.82,1.82,0,0,0-2.86.39c-.14.24-.24.51-.39.83l-.43,0a1.69,1.69,0,0,0-1.65,2.45c.37.84.83,1.64,1.27,2.45s.52.76,1.26.36l4.35-2.38C44.76,132.59,44.8,132.42,44.45,131.79Zm-5,2a14.71,14.71,0,0,1-.79-1.61.55.55,0,0,1,1-.5,11.4,11.4,0,0,1,.86,1.39Zm2.2-1.3c-.3-.62-.58-1.15-.82-1.69a.65.65,0,0,1,.34-.88.59.59,0,0,1,.83.21c.33.49.63,1,1,1.61Z"/><path class="cls-1" d="M39,78.67c.45-.8.38-1-.47-1.34l-1.07-.4c-.55-.21-.64-.64-.2-1a1.65,1.65,0,0,1,.59-.3c.55-.16,1.11-.29,1.66-.44,1-.27,1.2-.58,1.26-1.78a12.27,12.27,0,0,0-3.11.68A4.65,4.65,0,0,0,37.3,73a1.83,1.83,0,0,0-3.26.08c-.5,1.12-1,2.26-1.49,3.52,2,1,4.15,1.5,6.12,2.43A2.3,2.3,0,0,0,39,78.67Zm-2.8-4.2a3.47,3.47,0,0,1-.72,1.71l-1.1-.52c.25-.58.44-1.11.7-1.61a.51.51,0,0,1,.73-.26A.59.59,0,0,1,36.22,74.47Z"/><path class="cls-1" d="M29.91,100.31l4.68.17a2.44,2.44,0,0,0,.47,0,.69.69,0,0,0,.65-.8c0-.48-.16-.68-.69-.7-.73,0-1.46,0-2.2,0l-.7-.06,0-.18c.25-.16.5-.33.76-.48.87-.53,1.75-1,2.61-1.58a1,1,0,0,0,.37-1.2c-.11-.47-.53-.48-.92-.48l-4.78-.07a3.58,3.58,0,0,0-.57,0,.65.65,0,0,0-.55.77c0,.36.19.61.58.62l2.11.08.89,0,.06.2c-.19.14-.36.29-.56.41-.87.51-1.77,1-2.64,1.53A1.12,1.12,0,0,0,29,99.9C29.11,100.42,29.54,100.3,29.91,100.31Z"/><path class="cls-1" d="M75.38,38.71c.24.68.42.79.94.62s.71-.39.49-1c-.31-.88-.63-1.77-1-2.65l.17-.14.93.73c.66.54,1.32,1.1,2,1.62a1.26,1.26,0,0,0,1.43-.09.62.62,0,0,0,.16-.77c-.43-1.2-.84-2.4-1.28-3.59-.25-.68-.56-1.33-.82-2a1.55,1.55,0,0,0-.42.05c-.85.33-.88.42-.56,1.25s.6,1.54.88,2.31c0,.09,0,.21-.07.41-.25-.18-.43-.3-.6-.44l-2.44-2a1.05,1.05,0,0,0-1.4,0c-.43.32-.21.68-.08,1Z"/><path class="cls-1" d="M154.11,55.3a4.23,4.23,0,0,0-2.61,2,3.43,3.43,0,0,0-.44,1.33c-.2,1.78,1.59,3.42,2.92,3.83a.78.78,0,0,0,.62-.08c.64-.45,1.25-.95,2-1.5a19,19,0,0,0-1.88-2.28c-.87.6-.87.6-.09,2a2.68,2.68,0,0,1-.78.14,1.8,1.8,0,0,1-1.09-2.6,3,3,0,0,1,1.71-1.32,1.64,1.64,0,0,1,2.09,1.75c-.16.9-.08,1,.9,1.46a1.67,1.67,0,0,0,.65-1.4,3.61,3.61,0,0,0-1.62-2.79A2.52,2.52,0,0,0,154.11,55.3Z"/><path class="cls-1" d="M93.07,35.3A3.29,3.29,0,0,0,96.2,32c-.1-.46-.16-.94-.3-1.39a2.94,2.94,0,0,0-2.67-2.25A3.17,3.17,0,0,0,89.94,30a3.63,3.63,0,0,0-.24,2.78A3.18,3.18,0,0,0,93.07,35.3Zm-.44-5.53A1.56,1.56,0,0,1,94.34,31a7,7,0,0,1,.17,1,1.75,1.75,0,0,1-.69,1.61,1.55,1.55,0,0,1-2.37-.71,4.46,4.46,0,0,1-.21-1.5A1.46,1.46,0,0,1,92.63,29.77Z"/><path class="cls-1" d="M165.06,81.38a3.23,3.23,0,0,0-2.25,3.38,3.47,3.47,0,0,0,3.33,3.1,10.63,10.63,0,0,0,2-.67,3.08,3.08,0,0,0,.85-5C168,81.05,166.89,80.72,165.06,81.38Zm3.25,2.42a1.51,1.51,0,0,1-1.06,2,13,13,0,0,1-1.26.36,1.7,1.7,0,0,1-1.71-1.29,1.53,1.53,0,0,1,1-1.86,4.62,4.62,0,0,1,1.28-.32A1.52,1.52,0,0,1,168.31,83.8Z"/><path class="cls-1" d="M132.7,43.08a3.9,3.9,0,0,0,2.12,1.83,2.27,2.27,0,0,0,1.77,0A4.37,4.37,0,0,0,139,42.57c1.19-2.43-1.19-4.45-3.11-4.52-1.63-.06-3.44,2-3.53,3.78A11.28,11.28,0,0,0,132.7,43.08ZM134,41.75a2.76,2.76,0,0,1,1.07-1.85,3.5,3.5,0,0,1,.72-.34c1.25,0,1.93.7,1.84,1.7a2.78,2.78,0,0,1-1.16,2,1.5,1.5,0,0,1-1.8.05A1.43,1.43,0,0,1,134,41.75Z"/><path class="cls-1" d="M70.48,41.72c1.5,0,3.5-1.29,3.41-3.17,0-1.59-1.28-3.83-3.29-3.83a3.35,3.35,0,0,0-3.43,3.17C67.18,39.82,68.78,41.68,70.48,41.72Zm-.16-5.57h.19A2.58,2.58,0,0,1,72.2,39.3a1.58,1.58,0,0,1-2.4.6,3,3,0,0,1-1.06-2.16A1.63,1.63,0,0,1,70.32,36.15Z"/><path class="cls-1" d="M47.06,62.59a2,2,0,0,0,0-2.09,4.84,4.84,0,0,0-3-2.33,2.11,2.11,0,0,0-2.36.62c-.72.87-1.35,1.82-2.11,2.85l5.57,3.75C45.88,64.38,46.51,63.51,47.06,62.59Zm-5.43-1.47A13.63,13.63,0,0,1,42.44,60a1.17,1.17,0,0,1,1.31-.32,3,3,0,0,1,.77.37c1.51,1,1.95,1.57.39,3.3Z"/><path class="cls-1" d="M107.17,35.15c.44.05.88.13,1.32.19.79.11,1.57.24,2.36.33a.64.64,0,0,0,.75-.82c-.08-.44-.4-.52-.77-.57l-2.76-.42.16-1.38c.32,0,.57,0,.81.05.6.07,1.2.18,1.8.23a.67.67,0,0,0,.76-.9c-.11-.41-.45-.41-.76-.44a7.47,7.47,0,0,1-2.43-.53c.07-.31.12-.58.21-1l2.55.38c.67.1.91,0,1-.56s-.07-.66-.71-.76c-1.13-.18-2.26-.34-3.4-.5-.62-.09-.76,0-.88.67-.23,1.35-.42,2.71-.62,4.06,0,.35-.11.7-.13,1C106.35,34.94,106.47,35.07,107.17,35.15Z"/><path class="cls-1" d="M160.58,76.79a5.19,5.19,0,0,0,.4.62,6.31,6.31,0,0,0,.9-.29,1.7,1.7,0,0,1,2,.33,5,5,0,0,1-.32.48c-.45.53-.93,1-1.38,1.58s-.44,1.41.37,2l2.8-3.47,3,1.4a1.8,1.8,0,0,0-.9-2.06c-.73-.32-1.47-.61-2.19-.93-.12,0-.19-.19-.34-.35.77-.4,1.62-.4,2.22-1,0-.15-.07-.28-.11-.39-.29-.89-.31-.9-1.21-.59L161,75.79C160.42,76,160.31,76.26,160.58,76.79Z"/><path class="cls-1" d="M154.6,64.64c.57,1,1.14,1.92,1.72,2.88s.61.84,1.48.06l-1.72-3c.25-.17.4-.28.56-.37.7-.44.83-.4,1.25.34.26.44.5.88.77,1.32.36.59.59.67,1,.38s.44-.49,0-1.12c-.29-.45-.59-.91-.86-1.38s-.24-.73.15-1,.57-.19.9.32l1.38,2.21c1.15-.33,1.2-.45.69-1.29s-1.16-2-1.76-3c-.3-.5-.43-.52-.91-.24l-1,.59c-1.18.71-2.36,1.4-3.53,2.12C154.22,63.88,154.21,64,154.6,64.64Z"/><path class="cls-1" d="M84.33,33.23a3.5,3.5,0,0,0,1,.26c.5.07,1,0,1.52.12a.59.59,0,0,1,.39,1,1.41,1.41,0,0,1-1.82.21c-.15-.12-.26-.28-.41-.4a1,1,0,0,0-1.21,0c-.33.34-.12.63.1.93a3.09,3.09,0,0,0,4.67-.06,2,2,0,0,0-.88-3.06,11.58,11.58,0,0,0-2-.33,4.91,4.91,0,0,1-.67,0c-.14,0-.34-.16-.35-.26a.69.69,0,0,1,.19-.49,1.28,1.28,0,0,1,1.57-.05c.66.48.94.46,1.64-.13a2,2,0,0,0-2.06-1.5,3.65,3.65,0,0,0-1.9.55,1.77,1.77,0,0,0,.18,3.26Z"/><path class="cls-1" d="M49.33,138.91c-.68-.93-1.38-1.84-2.07-2.76-.18-.24-.28-.61-.7-.55a.85.85,0,0,0-.75.76l2,2.7c-.19.17-.29.29-.41.38-.74.56-.91.54-1.46-.21L45,137.91a.56.56,0,0,0-.9-.13,2.62,2.62,0,0,0-.41.51c.52.71,1,1.37,1.51,2a.53.53,0,0,1-.1.83c-.32.24-.63.32-.91-.06s-.61-.83-.92-1.23-.54-.69-.79-1c-1,.51-1.09.69-.47,1.5s1.14,1.53,1.72,2.3c.21.27.44.52.71.84l5.28-3.91A7.26,7.26,0,0,0,49.33,138.91Z"/><path class="cls-1" d="M149.29,57.42c1.07-.56,1.1-.71.39-1.47l-1.29-1.4c-.48-.52-.48-.6.05-1.06a6,6,0,0,1,.61-.44c.22.2.39.33.54.49.42.44.82.9,1.24,1.33s.65.37,1-.06a.54.54,0,0,0-.07-.83l-1.73-1.84c.74-.91.85-.91,1.51-.2.41.45.82.89,1.24,1.33s.62.47,1.07,0a2,2,0,0,0,.25-.42c-1-1.06-1.91-2.1-2.87-3.12-.36-.39-.51-.37-.95,0l-2.82,2.59L146,53.78Z"/><path class="cls-1" d="M41.48,126c-.15-.4-.3-.73-.82-.5l-2,.91c-.32-.71-.63-1.37-1-2.12.74-.34,1.36-.66,2-.91.47-.18.58-.45.38-.88-.11-.23-.23-.44-.39-.74-1.92.79-3.79,1.56-5.66,2.35-.37.16-.4.5-.19,1s.38.57.82.38,1.11-.46,1.8-.74c.27.6.51,1.11.75,1.62s0,.65-.37.79a10.69,10.69,0,0,0-1.06.43c-.65.28-.7.42-.42,1.09a3.84,3.84,0,0,0,.33.52,1.9,1.9,0,0,0,.35-.06l5.28-2.2C41.81,126.75,41.63,126.41,41.48,126Z"/><path class="cls-1" d="M37,67.82,42.1,70.6c.14-.1.31-.17.38-.29.7-1.22,1.39-2.43,2-3.67a.74.74,0,0,0-.15-.66.63.63,0,0,0-1.08.16c-.47.82-.91,1.66-1.41,2.59L40.54,68c.51-1,1-1.88,1.41-2.75-1-.82-1-.8-1.55.22-.33.64-.7,1.26-1.08,1.93l-1-.61a31.7,31.7,0,0,0,1.55-3.08,6.28,6.28,0,0,0-.54-.36c-.14-.07-.29-.1-.53-.19-.74,1.35-1.45,2.62-2.15,3.9C36.44,67.43,36.67,67.66,37,67.82Z"/><path class="cls-1" d="M53.46,143.72a3.72,3.72,0,0,0-.39-.31L51,145.23l-1.55-1.76,2-1.87a2.56,2.56,0,0,0-.18-.31c-.65-.91-.71-.9-1.51-.17q-1.8,1.65-3.62,3.28c-.55.49-.56.6,0,1.12s.54.45,1.16-.13c1.2-1.12,1.2-1.12,2.25.07.51.58.48.64-.1,1.24-.37.38-.93.59-1.11,1.24l.87.93c.24-.19.4-.3.54-.42,1.22-1.12,2.44-2.25,3.67-3.36C54.05,144.47,54.06,144.42,53.46,143.72Z"/><path class="cls-1" d="M35.18,107.39c.28.08.73.1.87-.06a1,1,0,0,0,0-.87,1.33,1.33,0,0,0-.67-.61c-.84-.35-.85-.32-.89-1.17,0-.23,0-.45-.07-.67-.11-.74-.12-.74.55-1.11.92-.52,1-.67.53-1.88a4.62,4.62,0,0,0-.67.24c-1.66.81-3.31,1.65-5,2.44a1.09,1.09,0,0,0-.74,1.1c0,.57.29.86.94,1C31.76,106.37,33.46,106.9,35.18,107.39Zm-2.24-3.55.19,1.31-1.55-.36-.08-.24Z"/><path class="cls-1" d="M168.88,114.88l-3.83-2.69c-.41-.29-.83-.57-1.3-.88-.66,1-.63,1.29.11,1.85.26.2.68.33.57.79-.17.7-.38,1.39-.55,2-1.57.17-1.69.28-1.79,1.7a2.68,2.68,0,0,0,.62.07l3-.41c.88-.13,1.76-.27,2.64-.37s.86-.63,1-1.2S169.19,115.1,168.88,114.88Zm-1.86.71h-1.63l.35-1.11,1.36.9Z"/><path class="cls-1" d="M38.88,121.39c.48,0,.67-.23.49-.66-.34-.81-.44-1.06-1.27-1a3.58,3.58,0,0,1-.61-.06c-.18-.56-.33-1.11-.54-1.63a.78.78,0,0,1,.29-1c.82-.72.81-.73.29-2a1.89,1.89,0,0,0-.48.17L32.37,119a.84.84,0,0,0-.31,1c.23.74.44.93,1.3,1l4.39.28C38.13,121.29,38.5,121.38,38.88,121.39Zm-3.2-1.77c-.43,0-.87,0-1.4-.07.28-.63.8-.83,1.34-1.16.14.38.26.72.38,1.07C35.85,119.54,35.76,119.62,35.68,119.62Z"/><path class="cls-1" d="M31.35,83.9c1.32.36,2.64.71,4,1a1.89,1.89,0,0,0,1-.11,2.61,2.61,0,0,0,1.58-2.12c.35-1.61-.12-2.54-1.64-3-1.16-.37-2.33-.68-3.49-1-.76-.2-1.11.1-1.07.86,0,.49.35.62.76.72,1.11.27,2.22.55,3.33.86.66.19.81.39.81,1,0,.92-.5,1.36-1.39,1.21a5.05,5.05,0,0,1-.56-.12c-1-.28-2-.57-3-.83-.17,0-.48-.06-.53,0a2.52,2.52,0,0,0-.38,1C30.73,83.58,31.11,83.84,31.35,83.9Z"/><path class="cls-1" d="M56.18,47.32c.3.94.57,1.89.89,2.83.06.2.28.48.45.5.52.05,1.08-.74.92-1.26-.3-1-.3-1,.51-1.66l.45-.35c.59-.45.67-.45,1.28-.09s.72.41,1.32-.07.47-.67-.09-1l-4.74-2.69c-.22-.13-.45-.24-.62-.33a1.33,1.33,0,0,0-1.15,1.65C55.67,45.68,55.93,46.5,56.18,47.32Zm1.07-2.06,1.51.91-1,.9L57.1,45.4Z"/><path class="cls-1" d="M50.27,58.5a5.65,5.65,0,0,0,.75-.87,2,2,0,0,0-.26-3c-1-.95-2.06-1.81-3.1-2.7-.29-.25-.54-.19-.82.1-.53.57-.55.71,0,1.22.85.72,1.72,1.42,2.56,2.16s.79,1,.35,1.63a1.19,1.19,0,0,1-1.84.18c-.31-.22-.6-.48-.89-.72l-2.27-1.89-1,1.08c1.31,1.07,2.46,2.06,3.68,3A2,2,0,0,0,50.27,58.5Z"/><path class="cls-1" d="M30.23,90.5a4.76,4.76,0,0,0,.66.09c1.48.23,3,.44,4.43.69.69.12.89,0,1-.66s-.07-.78-.71-.89-1.1,0-1.52-.42c.06-.7.17-1.3.16-1.9a2.26,2.26,0,0,0-2.11-2,2,2,0,0,0-2,1.6c-.18.84-.32,1.68-.47,2.52C29.52,90.16,29.63,90.34,30.23,90.5Zm1.14-2.86c.12-.35.37-.64.79-.52a.76.76,0,0,1,.61.85c0,.41-.15.81-.24,1.27l-1.46-.35C31.17,88.46,31.24,88,31.37,87.64Z"/><path class="cls-1" d="M129.74,41.63a1.94,1.94,0,0,0,.87-.34c.32-.22.82-.57.8-.82s-.49-.65-.78-1c-.3.19-.49.3-.66.43a1.13,1.13,0,0,1-1.33.1,1.15,1.15,0,0,1-.67-1.25,3.9,3.9,0,0,1,.63-1.88,1.46,1.46,0,0,1,1.52-.76c.63.12,1.13.44,1.12,1.2a.65.65,0,0,0,0,.19,1.15,1.15,0,0,0,1.14.51c.52-.08.43-.47.42-.81-.08-1.53-2.32-2.93-3.81-2.37a4.1,4.1,0,0,0-2.65,3.46A3.2,3.2,0,0,0,129.74,41.63Z"/><path class="cls-1" d="M100.54,34.85a2.54,2.54,0,0,0,2.25-2.08,3.86,3.86,0,0,0-.5-.38c-.55-.29-.76-.21-1.06.34a1.22,1.22,0,0,1-1.37.77,1.15,1.15,0,0,1-1.12-1,5.55,5.55,0,0,1,0-2.07,1.37,1.37,0,0,1,2.38-.63c.21.22.31.62.71.54a7.47,7.47,0,0,0,1-.33,2.89,2.89,0,0,0-5-1,3.93,3.93,0,0,0-.43,4.3A2.9,2.9,0,0,0,100.54,34.85Z"/><path class="cls-1" d="M157.17,132.43a2.09,2.09,0,0,0-2.41.87,1.72,1.72,0,0,0,.18,2.35,7,7,0,0,0,3.22,2.13,3,3,0,0,0,.58.11,2,2,0,0,0,1.95-1.26,1.76,1.76,0,0,0-.37-2.11A7.92,7.92,0,0,0,157.17,132.43Zm2.26,3.77a.55.55,0,0,1-.82.2c-.87-.52-1.73-1.06-2.56-1.64a.79.79,0,0,1-.21-.66c0-.13.32-.22.43-.29a1.72,1.72,0,0,1,.57.1c.8.5,1.61,1,2.37,1.56A.83.83,0,0,1,159.43,136.2Z"/><path class="cls-1" d="M162.61,129.44a7.89,7.89,0,0,0-3-1.58,2,2,0,0,0-2.22.91,1.72,1.72,0,0,0,0,2.21,6.46,6.46,0,0,0,4.23,2.24,4.49,4.49,0,0,0,1.1-.48C163.91,131.83,163.87,130.48,162.61,129.44Zm-.47,2c0,.12-.3.21-.47.25a.75.75,0,0,1-.47-.06q-1.2-.6-2.37-1.23a.49.49,0,0,1-.27-.26,1.06,1.06,0,0,1-.07-.6c0-.13.3-.17.39-.22a6.17,6.17,0,0,1,3.12,1.53A.72.72,0,0,1,162.14,131.46Z"/><path class="cls-1" d="M148.71,149.81a6.69,6.69,0,0,0-3.26-3.47,2.11,2.11,0,0,0-2.6,2.25,6.41,6.41,0,0,0,3.37,3.71c1.08.52,2.7-.88,2.59-2.09A1.55,1.55,0,0,0,148.71,149.81Zm-1.64,1.11a.61.61,0,0,1-.46,0,6.2,6.2,0,0,1-2.33-2.59.47.47,0,0,1,.57-.62,1,1,0,0,1,.51.26c.63.67,1.24,1.36,1.84,2.06a2.93,2.93,0,0,1,.27.56A1.89,1.89,0,0,1,147.07,150.92Z"/><path class="cls-1" d="M51.15,53.19a3,3,0,0,0,4.74-.94,2.05,2.05,0,0,0-.26-2.53c-1.12.23-1.14.26-1,1.31a1.24,1.24,0,0,1-.54,1.33,1.16,1.16,0,0,1-1.42,0,10.18,10.18,0,0,1-1.35-1.19,1.44,1.44,0,0,1-.22-1.7,1.25,1.25,0,0,1,1.51-.69A1,1,0,0,0,53.69,48c.05-.54-.42-.57-.77-.67a1.83,1.83,0,0,0-.66-.06,3.08,3.08,0,0,0-2.35,4.51A6.31,6.31,0,0,0,51.15,53.19Z"/><path class="cls-1" d="M152.73,138.82a2.59,2.59,0,0,0-.53-.17,2.29,2.29,0,0,0-2,1.1,1.7,1.7,0,0,0,0,2,6.87,6.87,0,0,0,3.18,2.65,1.81,1.81,0,0,0,2.28-.66,1.68,1.68,0,0,0,.14-2.27A7.57,7.57,0,0,0,152.73,138.82Zm1.37,4.28a7.21,7.21,0,0,1-2.72-2.18.59.59,0,0,1,0-.53.82.82,0,0,1,.55-.26,1.1,1.1,0,0,1,.62.23c.67.54,1.33,1.08,2,1.65a2.22,2.22,0,0,1,.33.55C154.76,143,154.44,143.25,154.1,143.1Z"/><path class="cls-1" d="M114.29,166.32c-.13-.44-.22-.77.32-1a.64.64,0,0,0,.17-.63c-.07-.15-.39-.19-.61-.26,0,0-.12,0-.19,0l-4.38.91-.56.14c-.28.07-.5.25-.4.53a1.09,1.09,0,0,0,.51.46,2.18,2.18,0,0,0,.61.08c.38.79.48,1.49-.35,2,.31.72,1,.89,1.53,1.12a.45.45,0,0,0,.64-.38c.08-.5.43-.59.82-.65l1.19-.17a12.72,12.72,0,0,1,.39,1.33,1,1,0,0,0,.54.84,2.72,2.72,0,0,0,.7.14,2,2,0,0,0,.1-.7C115,168.83,114.66,167.57,114.29,166.32Zm-2.74,1.6a3.37,3.37,0,0,1-.55-1.63l1.39-.41a.48.48,0,0,1,.69.43c.07.37.15.73.23,1.15Z"/><path class="cls-1" d="M85.72,164.76c-1.5-.42-3-.8-4.53-1.21-.35-.09-.64-.09-.76.32s.16.56.49.68a4,4,0,0,1,1,.44c.45.33.32.85-.22,1a1.55,1.55,0,0,1-.74,0,5.83,5.83,0,0,1-.83-.33,3,3,0,0,0,.9,2.54,2,2,0,0,0,2.47.53,3.28,3.28,0,0,1,0,.55c-.05.19-.16.36-.2.54a.93.93,0,0,0,.6,1.06c.57.09.53-.38.62-.75.28-1.24.56-2.48.89-3.72.06-.24.32-.42.47-.64s.35-.4.31-.52A.86.86,0,0,0,85.72,164.76ZM84,167.17a1,1,0,0,1-.44.45,1.51,1.51,0,0,1-2.15-.6c1.66-.38,1.71-.42,1.92-1.75l1.1.31A15.9,15.9,0,0,1,84,167.17Z"/><path class="cls-1" d="M107.66,167.72c-.08-.46-.17-.81.25-1.19s.11-.8-.4-.84a3.63,3.63,0,0,0-.57,0l-3.71.37a1.76,1.76,0,0,0-.66.08c-.18.11-.4.37-.38.54s.28.39.48.47a1.67,1.67,0,0,0,.66,0l3-.22.14,1.15c-.55,0-1,0-1.43.08a7.62,7.62,0,0,0-1.58.31,1,1,0,0,0-.48,1.7,5.74,5.74,0,0,0,2.32,1.94c.14.07.33,0,.5,0a8.15,8.15,0,0,0-1.18-1.23c-.38-.38-1-.67-.77-1.48a19,19,0,0,1,2.8-.23c0,.64.08,1.2.14,1.77.08.8.38,1.07,1.28,1.1a4.46,4.46,0,0,0,0-.63C108,170.18,107.87,168.94,107.66,167.72Z"/><path class="cls-1" d="M152,145c-.24.21-.63.39-.71.67a2.76,2.76,0,0,0,.11,1.08c-.17.35-.41.66-.87.55a1.06,1.06,0,0,1-.75-.91,3.6,3.6,0,0,1,0-.66,19.22,19.22,0,0,0,0-2,2.37,2.37,0,0,0-1-2c-.93,1-1.81,1.89-2.67,2.83a.5.5,0,0,0,.12.87l.52.35,1.45-1.46.19.11a15.57,15.57,0,0,0,0,1.81,4.74,4.74,0,0,0,.45,1.53,1.82,1.82,0,0,0,2.52.77,3.06,3.06,0,0,0,1.27-1.39A1.62,1.62,0,0,0,152,145Z"/><path class="cls-1" d="M100,170.07c0,.61,0,1.11,0,1.61.06.69.42.91,1.16.76a.8.8,0,0,0,.09-.26c0-1.24-.07-2.48-.14-3.72,0-.5-.18-.94.32-1.37s.12-.85-.39-.87c-.88,0-1.76,0-2.69,0,0,1.27,1,.93,1.54,1.23v1.64h-2a6.88,6.88,0,0,1-.07-.7,2.56,2.56,0,0,0-1.58-2.24.58.58,0,0,0-.79.33c-.16.38,0,.6.4.71a2.26,2.26,0,0,1,.37.11,1.06,1.06,0,0,1,.12,1.73c-.67.46-.68.63-.05,1.17a3.31,3.31,0,0,0,.61.45.53.53,0,0,0,.81-.2.75.75,0,0,1,.47-.36C98.77,170,99.33,170.07,100,170.07Z"/><path class="cls-1" d="M121,162.86l0,0h0v0h0Z"/><path class="cls-1" d="M119.85,162.73c-1,.38-2.06.65-3.09,1a2.28,2.28,0,0,0-.72.26c-.16.13-.33.43-.28.59a.73.73,0,0,0,.54.38c.24,0,.48-.15.73-.21s.44-.09.66-.14l.09.2-.87.74c.54.7.65.73,1.16.17a1.68,1.68,0,0,1,1.22-.65.76.76,0,0,1,.82,1.07,2.22,2.22,0,0,1-.8,1c-.19.12-.62-.13-.94-.21a.67.67,0,0,0-.2,0c-.39.17-.73.4-.65.91s.44.66,1,.73h.1l1.58.29c.46.09.92.22,1.39.3a.73.73,0,0,0,.87-.47l-2.41-.66c.4-.55.77-1,1.06-1.46a.9.9,0,0,0,.1-.71,2.42,2.42,0,0,0-1.31-1.44c-.16-.06-.32-.14-.71-.32a6.35,6.35,0,0,1,.84-.32,1,1,0,0,0,1-.9A1.16,1.16,0,0,0,119.85,162.73Z"/><path class="cls-1" d="M119.88,33.91a3.24,3.24,0,0,1-.06,2.15c-.13.33-.21.67-.33,1a.57.57,0,0,0,.42.82c.26.08.54.11.87.18a4.81,4.81,0,0,0,.17-.51,5,5,0,0,1,2.17-3.33,8.58,8.58,0,0,0,1.35-1.07,1.05,1.05,0,0,0,.33-.61c0-.09-.31-.25-.5-.33a1.07,1.07,0,0,0-1.36.31,8.45,8.45,0,0,1-1,.91,3.18,3.18,0,0,1-.56.33c-.18-.77-.32-1.45-.51-2.12a1.28,1.28,0,0,0-1.68-.78,3.49,3.49,0,0,0,.05.65C119.45,32.31,119.66,33.12,119.88,33.91Z"/><path class="cls-1" d="M170.11,107.45c-.39-.07-.57.21-.63.57s0,.44-.1.65c-.16.6-.27.64-.88.53-1.28-.23-2.57-.43-3.86-.65-.39-.06-.66,0-.78.47-.2.78-.05,1.06.85,1.2,1.1.18,2.2.3,3.31.46l.86.13c.07.15.13.21.12.27-.05.31-.12.62-.17.93a.72.72,0,0,0,.59.92c.45.08.65-.19.72-.58.22-1.32.43-2.64.65-4a2.64,2.64,0,0,0,0-.28C170.79,107.66,170.45,107.51,170.11,107.45Z"/><path class="cls-1" d="M113.53,30.69a3.56,3.56,0,0,0,.57.09c.72.12.81.24.65.95-.21.9-.45,1.79-.65,2.69-.12.57-.2,1.16-.32,1.81l1.36.28c.11-.31.19-.48.24-.66.28-1.27.56-2.54.85-3.81.15-.68.24-.73.9-.58l.37.09c.62.11.87,0,1-.48s-.08-.7-.67-.84c-1-.23-1.91-.46-2.87-.67a8.5,8.5,0,0,0-1.12-.21c-.39,0-.56.23-.64.57A.59.59,0,0,0,113.53,30.69Z"/><path class="cls-1" d="M59.7,42.25c.31-.19.6-.43,1-.69.25.32.45.56.62.81.66,1,1.31,2,2,3,.42.65.55.68,1.12.31s.59-.5.15-1.13S63.49,43,63,42.19c-.3-.44-.6-.88-1-1.39.4-.31.73-.61,1.1-.84a.5.5,0,0,0,.2-.79c-.27-.43-.55-.53-.94-.27Q60.65,40,59,41.18c-.32.21-.51.48-.21.88S59.24,42.54,59.7,42.25Z"/><path class="cls-1" d="M56.58,146.74a4.38,4.38,0,0,0-.62-.4l-.4.37c-.91,1-1.8,2-2.72,2.95-.43.47-.53.46-1,.06L51,149c-1,.61-1,.8-.29,1.43l1.12,1,2.1,1.85c1-.63,1-.75.28-1.42l-.14-.13c-.53-.52-.56-.64-.07-1.18q1.29-1.41,2.61-2.79C57.08,147.31,57.09,147.19,56.58,146.74Z"/><path class="cls-1" d="M169.59,88.45c-1.68.19-3.35.39-5,.57-.47,0-.71.27-.65.74.16,1.33.34,2.65.51,4,1.16.14,1.27.07,1.2-.84-.05-.72-.15-1.44-.24-2.28.84-.13,1.65-.26,2.46-.37L170.1,90c.39-.06.52-.3.48-.69C170.51,88.57,170.29,88.38,169.59,88.45Z"/><path class="cls-1" d="M137.84,46.94c1,.78,2,1.55,3,2.31.32.24.6.1.81-.19s.32-.58,0-.84c-.17-.14-.37-.25-.54-.39a7.05,7.05,0,0,1-1.55-1.4l.46-.64c.72-1,1.46-1.92,2.18-2.89.43-.59.41-.72-.16-1.14a5.3,5.3,0,0,0-.57-.32l-.82,1.05c-.92,1.21-1.84,2.43-2.77,3.63C137.68,46.4,137.5,46.68,137.84,46.94Z"/><path class="cls-1" d="M145.3,53.15c1-.74,1-.8.18-1.56A6.06,6.06,0,0,1,144,50l3.44-3.85-1.13-.95-4.4,4.88Z"/><path class="cls-1" d="M164.8,125.33c-.05.12-.07.24-.13.36-.15.35-.32.71-.54,1.19a10.31,10.31,0,0,0-3.92-3.59c-.85.82-.85,1.07,0,1.58a8.66,8.66,0,0,1,3.3,3.36,1.44,1.44,0,0,0,1.17.81l1.66-3.83C165.58,124.3,165.22,124.33,164.8,125.33Z"/><path class="cls-1" d="M94.19,166c-.82-.07-1.65-.15-2.47-.19a1.2,1.2,0,0,0-1.32.73c-.2.53.11.92.47,1.26.55.52,1.13,1,1.68,1.55.24.22.61.38.55.84-1.37.56-2.14-.57-3.08-1.18l-.17.2c.06.16.07.38.19.47a18.32,18.32,0,0,0,1.82,1.36,2.14,2.14,0,0,0,1,.22,1.21,1.21,0,0,0,1.32-.73c.23-.58-.1-1-.5-1.33s-1.06-.9-1.58-1.37a9.48,9.48,0,0,1-.75-.87c.58,0,.91-.08,1.24-.07.51,0,1,.09,1.52.12.3,0,.6,0,.64-.4S94.56,166.07,94.19,166Z"/><path class="cls-1" d="M104.47,34.94c.52.08.74,0,.86-.49a3.73,3.73,0,0,0,.09-.67c.07-1.23.13-2.47.2-3.71h0c0-.38,0-.76.06-1.14s-.23-.68-.7-.7c-.68,0-.85.08-.9.79-.13,1.71-.26,3.42-.38,5.13C103.7,34.66,103.87,34.84,104.47,34.94Z"/><path class="cls-1" d="M30.06,93.42l5,.44c.7.06.89-.13.94-.86,0-.53-.11-.7-.73-.75l-5.12-.43c-.67,0-.84.11-.89.79S29.4,93.36,30.06,93.42Z"/><path class="cls-1" d="M60.26,153.71a1.93,1.93,0,0,0-1.77,1.89,2.06,2.06,0,0,0,1.83,1.79,2.1,2.1,0,0,0,1.83-1.89A2,2,0,0,0,60.26,153.71Z"/><path class="cls-1" d="M138.42,153.7a1.86,1.86,0,0,0-1.74,1.79,2,2,0,0,0,1.79,1.9,2.18,2.18,0,0,0,1.85-1.9A2,2,0,0,0,138.42,153.7Z"/><path class="cls-1" d="M68,43.38a.54.54,0,0,0,.19-.82c-.92-1.56-1.82-3.13-2.76-4.68-.3-.51-.47-.53-1-.19A5.34,5.34,0,0,0,64,38a28.73,28.73,0,0,0,3.22,5.78C67.48,43.64,67.74,43.53,68,43.38Z"/><path class="cls-1" d="M89,165.37a11,11,0,0,0-1.69-.26.64.64,0,0,0-.5.34A.8.8,0,0,0,87,166a1.81,1.81,0,0,0,.49.34c-.27,1.27-.52,2.51-.8,3.75-.19.83-.11,1,.91,1.59.1-.35.19-.6.24-.86.25-1.28.51-2.55.74-3.83a.63.63,0,0,1,.48-.61.72.72,0,0,0,.35-.57C89.37,165.67,89.13,165.42,89,165.37Z"/><path class="cls-1" d="M102.5,174.17a1.68,1.68,0,0,1-2,.35c-.4-.19-.39-.44-.16-.75.67-.09,1.45.13,1.82-.7-.16-.32-.46-.39-.63-.18-.35.48-.79.43-1.28.38a1.27,1.27,0,0,0-1.29.57c1.16,1.94,3.27,2.23,4.74.37C103.06,173.59,103.06,173.59,102.5,174.17Z"/><path class="cls-1" d="M79.81,163.19a3.72,3.72,0,0,0-1.91-.6c0,1.16.94,1.19,1.55,1.54C80,163.67,80.14,163.41,79.81,163.19Z"/><path class="cls-1" d="M55.48,141c.81.85,1.59,1.71,2.42,2.54.42.42.9.77,1.35,1.16L55.65,141A.44.44,0,0,0,55.48,141Z"/><path class="cls-1" d="M45.51,126.38,46.4,128C46.21,127.37,46.1,126.73,45.51,126.38Z"/><path class="cls-1" d="M53.85,139l.79,1.09C54.62,139.57,54.24,139.29,53.85,139Z"/><path class="cls-1" d="M132.3,90.87a52.27,52.27,0,0,0-5.71-9.61,19.45,19.45,0,0,1-3.5-6.1,31.6,31.6,0,0,1-1.34-8.57c0-.5,0-1-.07-1.49L121.4,65a3.79,3.79,0,0,0-.53.6,30.46,30.46,0,0,0-4.13,10.73A17.18,17.18,0,0,0,117.8,86a55,55,0,0,1,4.25,13.85,30.51,30.51,0,0,1-.2,9.91,26.07,26.07,0,0,1-1.82,5.72,34.58,34.58,0,0,1-7.61,10.59,1.21,1.21,0,0,1-1.2.35,58.41,58.41,0,0,0-10.47-.94c-2,0-4.09.05-6.12.21-1.84.14-3.68.43-5.5.71a1.57,1.57,0,0,1-1.53-.49,38.71,38.71,0,0,1-5.67-7.09A27.74,27.74,0,0,1,78,107.41a31.12,31.12,0,0,1,.63-10.36,58.07,58.07,0,0,1,3.72-10.94,16.5,16.5,0,0,0,1.37-5.93,20.9,20.9,0,0,0-.93-6.89,37.21,37.21,0,0,0-3.46-7.76c-.12-.21-.37-.35-.74-.69a10.26,10.26,0,0,0-.16,1.35,29,29,0,0,1-1.22,8.58,13,13,0,0,1-2.11,4.47,64.71,64.71,0,0,0-4.91,7.19c-1.57,2.71-3.06,5.45-3.45,8.64-.17,1.39-.49,2.77-.57,4.17a32.29,32.29,0,0,0,.66,9.6,25.47,25.47,0,0,0,4.08,9,30.5,30.5,0,0,0,11.62,9.44,5.72,5.72,0,0,1,.53.33c-.25.1-.39.17-.53.21a35.22,35.22,0,0,0-6.08,2.26,26.54,26.54,0,0,0-3.26,1.81c-1,.66-.91,1.39.14,1.95a5.56,5.56,0,0,0,3,.79,1.88,1.88,0,0,1,1.4.49,7,7,0,0,1,.92,1A19.5,19.5,0,0,0,84,140.85a3.32,3.32,0,0,1,1.5,1.91c.31.94.62,1.88,1,2.78a3.74,3.74,0,0,0,1,1.46,15.29,15.29,0,0,0,2.7,1.61,18,18,0,0,0,6.67,1.54,34.8,34.8,0,0,0,9.82-.51,14.88,14.88,0,0,0,5.45-2.24,3.69,3.69,0,0,0,1.51-1.9c.35-1.06.78-2.1,1.18-3.14a2.74,2.74,0,0,1,1.21-1.43,20.13,20.13,0,0,0,5.3-4.65,10.78,10.78,0,0,1,1-1.06,2,2,0,0,1,1.55-.58,5.32,5.32,0,0,0,3.16-.92c.81-.52.85-1.09.1-1.68a10.76,10.76,0,0,0-1.85-1.18,38,38,0,0,0-7.63-3c-.16,0-.3-.15-.47-.22.09-.13.11-.2.16-.23a31.9,31.9,0,0,0,6.89-4.29c6.52-5.28,9.67-12.18,9.89-20.5a37,37,0,0,0-.59-7A19.29,19.29,0,0,0,132.3,90.87Zm-15,40a3.61,3.61,0,0,1-.48.48,25,25,0,0,1-7.21,3.47,47.7,47.7,0,0,1-7.75,1.64,12.46,12.46,0,0,1-4.47-.17c-1.68-.36-3.39-.6-5.06-1a25.41,25.41,0,0,1-8.47-3.65c-.3-.2-.58-.44-.92-.71a10.3,10.3,0,0,1,3.7-1.79,1.48,1.48,0,0,1,.73.11l3.68,1c.24.07.46.21.71.26a5.42,5.42,0,0,0,.85.07c-.48-1.09-1.61-1.33-2.1-2.17,2-.78,17.63-.78,19.34.06l-2.36,2c.46.09.67.2.85.15,1.56-.44,3.1-.92,4.66-1.37a1.14,1.14,0,0,1,.65-.07A10.77,10.77,0,0,1,117.26,130.86Z"/><path class="cls-1" d="M83.53,100.25c1.42,1.81,2.82,3.63,4.23,5.45a7.12,7.12,0,0,0,.61.59c1.16-2.08,1.92-4.27,3-6.29a1,1,0,0,1,.27.1q3.13,2.75,6.26,5.5c.1.09.12.25.21.44-1.15,0-2.19,0-3.24,0s-1.1.08-1.1,1.08c0,1.24,0,2.49,0,3.73a6,6,0,0,1-.1.77H88.49c-1,0-1.11.08-1.11,1.08q0,5,0,10c0,.94.13,1.07,1,1.07l23.29,0c1,0,1.06-.11,1.07-1q0-5.13,0-10.26c0-.7-.13-.82-.84-.83h-5.41c0-.38-.06-.65-.07-.93v-3.55c0-1,0-1.08-1.07-1.1-.45,0-.9,0-1.34,0h-1.88l-.08-.18c2.2-2,4.47-3.91,6.76-6l2.93,6.43a5.65,5.65,0,0,0,.72-.65c1.38-1.76,2.73-3.54,4.12-5.28a1.27,1.27,0,0,0,.23-1.48c-.7-1.71-1.32-3.46-2-5.18-.25-.64-.54-1.27-.87-2a10.11,10.11,0,0,0-.85.65l-11.43,10.5a1.57,1.57,0,0,1-.41.18,1.27,1.27,0,0,1-.09-.33c0-5,0-9.9,0-14.85a1.17,1.17,0,0,1,.54-1L104,85a3.86,3.86,0,0,1,.51-.29,6.81,6.81,0,0,1,.34.63c.55,1.29,1.08,2.58,1.63,3.87.29.68.54.72,1,.2,1.33-1.47,2.65-2.94,4-4.39a1.15,1.15,0,0,0,.3-1.37c-.72-1.81-1.38-3.64-2.07-5.46-.24-.64-.5-.69-1-.25l-5.3,4.27-2.1,1.66c0-.4-.06-.58-.06-.76,0-2.46,0-4.92,0-7.38a1.74,1.74,0,0,1,.58-1.42c1.37-1.33,2.7-2.72,4.08-4a1.08,1.08,0,0,0,.29-1.36c-.35-.88-.64-1.79-1-2.69q-1.73-4.72-3.44-9.43c-.47-1.29-.94-2.57-1.41-3.83-.45-.1-.58.17-.7.49-.23.66-.48,1.32-.72,2C97.29,59.9,95.68,64.37,94,68.81a1.23,1.23,0,0,0,.37,1.57c1.39,1.31,2.73,2.69,4.12,4a1.82,1.82,0,0,1,.59,1.44c0,2.42,0,4.85,0,7.28,0,.2,0,.41,0,.82-.46-.34-.78-.57-1.09-.82L91.57,78c-.58-.47-.84-.43-1.07.18-.69,1.81-1.37,3.64-2,5.46a1.24,1.24,0,0,0,.28,1.4c1.35,1.44,2.66,2.92,4,4.39.49.53.75.48,1-.16.46-1.13.91-2.25,1.38-3.37.17-.4.39-.77.62-1.24,1.06.83,2,1.6,3,2.35a1,1,0,0,1,.35.93c0,4.64,0,9.27,0,13.9v1.34a5.83,5.83,0,0,1-.62-.42L87,92.27a5.38,5.38,0,0,0-.79-.51c-.15.27-.27.42-.34.59-.88,2.26-1.75,4.52-2.63,6.77A1,1,0,0,0,83.53,100.25Zm16.56,8.23c.82,1,1.54,2,2.23,2.91a.75.75,0,0,1,.09.62c-.71,1.86-1.44,3.71-2.21,5.67-.18-.19-.34-.3-.39-.44q-1-2.49-1.92-5a1.09,1.09,0,0,1,0-.81C98.55,110.47,99.3,109.53,100.09,108.48Z"/><path class="cls-1" d="M100,39a61.2,61.2,0,1,0,61.2,61.2A61.27,61.27,0,0,0,100,39ZM41.52,115.55c.32,1.14.66,2.28,1,3.41C42.16,117.84,41.82,116.7,41.52,115.55ZM74.76,155a2.55,2.55,0,0,0,.53.4c-1.5-.68-3-1.41-4.41-2.21.93.52,1.89,1,2.85,1.45A8.33,8.33,0,0,0,74.76,155Zm2.41,1.18c1.67.6,3.33,1.26,5,1.77s3.27.93,4.92,1.34a59.43,59.43,0,0,1-11.32-3.67,3.77,3.77,0,0,0,.7.15A3.88,3.88,0,0,0,77.17,156.14Zm47.41-.79.09,0-.23.1Zm-22.11,5.22.85,0ZM141.54,144a4.84,4.84,0,0,0-1,1l-1.08,1a1.64,1.64,0,0,0-.6.51c-.53.44-1.05.87-1.59,1.3a.9.9,0,0,0-.42.32c-.43.34-.87.66-1.31,1a4,4,0,0,0-1.29.92c-1.09.75-2.2,1.48-3.34,2.16a1.61,1.61,0,0,0-.39.12l-2.93,1.57-3,1.58,0,0c-.36.12-.72.22-1.07.36a63.27,63.27,0,0,1-11.66,3.55,60.7,60.7,0,0,1-9,1.07,57.46,57.46,0,0,1-10.32-.38c-2-.27-3.94-.69-5.91-1.07a49.94,49.94,0,0,1-7.58-2.24c-.87-.32-1.74-.6-2.61-.9h0L74.76,155a2.53,2.53,0,0,0-.42-.31q-2.49-1.33-5-2.64c-.25-.13-.52-.21-.77-.32a15.45,15.45,0,0,0,1.82,1.2,59.92,59.92,0,0,1-6.4-4.16,2.37,2.37,0,0,0,.71.3l-1.65-1.18a3.76,3.76,0,0,0,.5.55,60.93,60.93,0,0,1-12.31-12.48,1.09,1.09,0,0,0,.43.27l-.69-.89a1.09,1.09,0,0,0,.15.46c-.51-.69-1-1.4-1.48-2.12l.8,1.12c0,.06.18.06.27.08Q49.4,132.91,48.1,131a9.9,9.9,0,0,0,.44.93c-.52-.84-1-1.68-1.49-2.55a1.47,1.47,0,0,0,.41.31c-.36-.59-.72-1.17-1.09-1.75.06.16.11.32.16.48-.46-.86-.89-1.74-1.31-2.62a1.19,1.19,0,0,0,.32.25l-1.27-2.52c.29.7.57,1.41.88,2.12-.53-1.14-1-2.29-1.48-3.46.21.46.42.92.62,1.38-.2-.66-.37-1.34-.62-2a53.57,53.57,0,0,1-2.66-9c-.31-1.59-.57-3.19-.77-4.8a50.3,50.3,0,0,1-.48-5.32q-.07-3.73.17-7.46a57.55,57.55,0,0,1,.78-6.14A55.6,55.6,0,0,1,43.83,78c.11-.3.22-.6.32-.9.25-.59.5-1.18.77-1.76L45,75.2c.5-1,1-2,1.48-3A60.39,60.39,0,1,1,141.54,144Z"/></g></g></svg>