<svg xmlns="http://www.w3.org/2000/svg" width="40" height="40" viewBox="0 0 40 40">
  <g id="mall" transform="translate(0 -1.216)" style="isolation: isolate">
    <path id="Path_48" data-name="Path 48" d="M38.271,38.889V4.428l-4.52-3.212L17.566,9.409v5.784l-9.03,3.212v4.2l-6.725,2V38.741H0v2.344H1.811V41.1l2.035-.011L3.87,26.162l11.316-2.935-.066,17.823,1.617.012v.022h3.811V38.741H19.384V24.61l-2.757-4.417-5.983,1.783v-1.8l11.743-4.258V41.053h8.355V38.726H29.161V15.514L24.571,12.46l-4.819,1.768.074-3.213L31.569,5.07V41.216H40V38.889Z" transform="translate(0 0)" fill="#778ba0"/>
    <path id="Path_49" data-name="Path 49" d="M23.346,21.246h-8V18.869l8-1.423Z" transform="translate(0.654 1.87)" fill="#778ba0"/>
    <path id="Path_50" data-name="Path 50" d="M23.346,19.824l-8,1.422V18.868l8-1.422Z" transform="translate(0.654 1.87)" fill="#778ba0"/>
    <path id="Path_51" data-name="Path 51" d="M23.346,19.824l-8,1.422V18.87l8-1.424Z" transform="translate(0.654 1.87)" fill="#778ba0"/>
    <path id="Path_52" data-name="Path 52" d="M23.346,19.824l-8,1.422V18.869l8-1.423Z" transform="translate(0.654 1.87)" fill="#778ba0"/>
  </g>
</svg>
