<svg xmlns="http://www.w3.org/2000/svg" width="41" height="35.113" viewBox="0 0 41 35.113">
  <g id="Group_59" data-name="Group 59" transform="translate(6547.049 -1431)">
    <g id="Group_46" data-name="Group 46" transform="translate(-6 -4.844)">
      <path id="Path_126" data-name="Path 126" d="M-6540.549,1469.613h40" transform="translate(0 0.844)" fill="none" stroke="#778ba0" stroke-linecap="round" stroke-width="1"/>
      <path id="Path_127" data-name="Path 127" d="M-6539.342,1470.156v-22.139" transform="translate(0.03 0.302)" fill="none" stroke="#778ba0" stroke-linecap="round" stroke-width="1"/>
      <path id="Path_128" data-name="Path 128" d="M-6539.342,1472.881" transform="translate(37.76 -2.424)" fill="none" stroke="#778ba0" stroke-linecap="round" stroke-width="1"/>
      <path id="Path_129" data-name="Path 129" d="M-6501.544,1470.244V1444.49h-14.4" transform="translate(-0.536 0.213)" fill="none" stroke="#778ba0" stroke-linecap="round" stroke-linejoin="round" stroke-width="1"/>
      <path id="Path_130" data-name="Path 130" d="M-6539.1,1446.037v-1.493h14.424" transform="translate(0.036 0.159)" fill="none" stroke="#778ba0" stroke-linecap="round" stroke-linejoin="round" stroke-width="1"/>
      <path id="Path_131" data-name="Path 131" d="M-6539.342,1461.48h37.2" transform="translate(0.03 0.64)" fill="none" stroke="#778ba0" stroke-width="1"/>
      <g id="Rectangle_67" data-name="Rectangle 67" transform="translate(-6537 1450.844)" fill="none" stroke="#778ba0" stroke-linejoin="round" stroke-width="1">
        <rect width="5" height="7" stroke="none"/>
        <rect x="0.5" y="0.5" width="4" height="6" fill="none"/>
      </g>
      <g id="Rectangle_68" data-name="Rectangle 68" transform="translate(-6509.199 1450.844)" fill="none" stroke="#778ba0" stroke-linejoin="round" stroke-width="1">
        <rect width="5" height="7" stroke="none"/>
        <rect x="0.5" y="0.5" width="4" height="6" fill="none"/>
      </g>
      <path id="Path_132" data-name="Path 132" d="M-6530,1461.539v-2.416h18.32v2.416" transform="translate(0.166 0.581)" fill="none" stroke="#778ba0" stroke-linejoin="round" stroke-width="1"/>
      <path id="Path_133" data-name="Path 133" d="M-6536.727,1461.48v4.958h4.52v-4.958" transform="translate(0.095 0.64)" fill="none" stroke="#778ba0" stroke-linejoin="round" stroke-width="1"/>
      <path id="Path_134" data-name="Path 134" d="M-6536.727,1461.48v4.958h4.52v-4.958" transform="translate(27.574 0.64)" fill="none" stroke="#778ba0" stroke-linejoin="round" stroke-width="1"/>
      <path id="Path_135" data-name="Path 135" d="M-6531.622,1444.844v-2.6h5.913" transform="translate(0.172 -0.141)" fill="none" stroke="#778ba0" stroke-linejoin="round" stroke-width="1"/>
      <path id="Path_136" data-name="Path 136" d="M-6515.378,1441.951h6.06v2.26" transform="translate(-0.342 0.149)" fill="none" stroke="#778ba0" stroke-linejoin="round" stroke-width="1"/>
      <g id="Ellipse_3" data-name="Ellipse 3" transform="translate(-6526.099 1435.844)" fill="none" stroke="#778ba0" stroke-width="1">
        <circle cx="5.5" cy="5.5" r="5.5" stroke="none"/>
        <circle cx="5.5" cy="5.5" r="5" fill="none"/>
      </g>
      <path id="Path_137" data-name="Path 137" d="M-6528.636,1461.844v7.809" transform="translate(0.239 0.649)" fill="none" stroke="#778ba0" stroke-linecap="round" stroke-width="1"/>
      <path id="Path_138" data-name="Path 138" d="M-6528.636,1461.844v7.809" transform="translate(8.399 0.649)" fill="none" stroke="#778ba0" stroke-linecap="round" stroke-width="1"/>
      <path id="Path_139" data-name="Path 139" d="M-6513.4,1461.48v1.456" transform="translate(0.544 0.64)" fill="none" stroke="#778ba0" stroke-linecap="round" stroke-width="1"/>
      <path id="Path_140" data-name="Path 140" d="M-6513.4,1469.573v-4.562" transform="translate(0.544 0.729)" fill="none" stroke="#778ba0" stroke-linecap="round" stroke-width="1"/>
      <path id="Path_142" data-name="Path 142" d="M-6513.4,1469.573v-4.562" transform="translate(-7.456 -13.271)" fill="none" stroke="#778ba0" stroke-linecap="round" stroke-width="1"/>
      <g id="Group_47" data-name="Group 47">
        <g id="Rectangle_69" data-name="Rectangle 69" transform="translate(-6530 1450.844)" fill="none" stroke="#778ba0" stroke-linejoin="round" stroke-width="1">
          <rect width="19" height="7" stroke="none"/>
          <rect x="0.5" y="0.5" width="18" height="6" fill="none"/>
        </g>
        <path id="Path_141" data-name="Path 141" d="M-6513.239,1470.022v-5.011" transform="translate(-12.618 -13.271)" fill="none" stroke="#778ba0" stroke-linecap="round" stroke-width="1"/>
        <path id="Path_143" data-name="Path 143" d="M-6513.4,1470.434v-5.423" transform="translate(-7.456 -13.271)" fill="none" stroke="#778ba0" stroke-linecap="round" stroke-width="1"/>
        <path id="Path_144" data-name="Path 144" d="M-6513.4,1470.434v-5.423" transform="translate(-2.456 -13.271)" fill="none" stroke="#778ba0" stroke-linecap="round" stroke-width="1"/>
      </g>
    </g>
    <path id="Path_146" data-name="Path 146" d="M5.07-54.06v-1.291q-.715.27-.715.834Q4.354-54.168,5.07-54.06Zm.64.759v1.87a1.643,1.643,0,0,0,.636-.381.874.874,0,0,0,.284-.622Q6.63-53.061,5.71-53.3Zm0-3.452v.608h.014a3.08,3.08,0,0,1,.787.119q.579.155.579.4a.281.281,0,0,1-.32.316,2.859,2.859,0,0,1-.505-.077,2.639,2.639,0,0,0-.555-.074V-54a1.942,1.942,0,0,1,1.244.521,1.384,1.384,0,0,1,.41,1.007,1.581,1.581,0,0,1-.5,1.2,2.236,2.236,0,0,1-1.154.55v.956a.314.314,0,0,1-.092.232.314.314,0,0,1-.232.092.28.28,0,0,1-.316-.316v-.917q-1.755-.025-1.755-.91,0-.324.3-.324a.491.491,0,0,1,.324.133,2.1,2.1,0,0,0,.349.259,1.969,1.969,0,0,0,.784.165v-2.039H5.041a1.94,1.94,0,0,1-.964-.273.961.961,0,0,1-.5-.859,1.273,1.273,0,0,1,.46-.928,2.536,2.536,0,0,1,1.035-.586v-.69a.314.314,0,0,1,.1-.234.323.323,0,0,1,.235-.093A.272.272,0,0,1,5.71-56.753Z" transform="translate(-6532 1490)" fill="#778ba0"/>
  </g>
</svg>
