<svg id="Layer_2" data-name="Layer 2" xmlns="http://www.w3.org/2000/svg" width="38.49" height="38.5" viewBox="0 0 38.49 38.5">
  <g id="Layer_1" data-name="Layer 1">
    <path id="Path_38" data-name="Path 38" d="M38.48,9.78c0-6-3.75-9.71-9.69-9.76H19.31C16.15.02,12.83,0,9.59,0,4,.09.1,3.83,0,9.45c0,6.64,0,13.29.08,19.93a8.94,8.94,0,0,0,8.7,9q10.44.24,20.9,0a9,9,0,0,0,8.77-9.17Q38.51,19.5,38.48,9.78ZM35.91,31.07C35.75,33.8,33,36,30.11,36q-10.82.18-21.62,0a6,6,0,0,1-6-5.63c-.24-4.74-.06-9.5-.06-14.41H9.24c-1.46,5.65-.56,10.49,4.65,13.58a10,10,0,0,0,11.84-.72c4.26-3.25,5-7.67,3.46-13h4.88c.63,0,1.27.09,1.93.14C36,21.1,36.21,26.1,35.91,31.07ZM10.8,20.37a8.71,8.71,0,0,1,8.52-8.52,8.72,8.72,0,0,1,8.43,8.36,8.48,8.48,0,1,1-16.95.16ZM36.19,13.6c-2.83,0-5.33.07-7.82,0a3.43,3.43,0,0,1-1.8-1A10.59,10.59,0,0,0,12,12.51a4.58,4.58,0,0,1-2.51,1.05c-2.25.15-4.51,0-7,0A41.23,41.23,0,0,1,2.56,7.5,6.22,6.22,0,0,1,8.79,2.36c7-.12,13.94-.14,20.9,0,3.72.07,6.13,2.55,6.48,6.29C36.31,10.16,36.19,11.7,36.19,13.6Z" fill="#F28C8C"/>
    <path id="Path_39" data-name="Path 39" d="M30,4.84c-2.34,0-2.81.92-2.83,3s.94,2.68,2.79,2.39c1.83.27,2.88-.14,2.82-2.36C32.69,5.85,32.36,4.83,30,4.84Z" fill="#F28C8C"/>
  </g>
</svg>
