<svg xmlns="http://www.w3.org/2000/svg" width="40" height="40" viewBox="0 0 40 40">
  <g id="scheme" transform="translate(0 -0.001)" style="isolation: isolate">
    <g id="Group_21" data-name="Group 21" transform="translate(3.039 3.01)">
      <g id="Group_20" data-name="Group 20">
        <path id="Path_44" data-name="Path 44" d="M75.142,42.145a.722.722,0,0,0-.722.722v31.2H68.648V72.439H72.1a.722.722,0,0,0,.722-.722V58.953a.722.722,0,0,0-.722-.722H69.018v-1.6H72.1a.722.722,0,0,0,.722-.722V39.24a.722.722,0,0,0-.722-.722H57.383a.722.722,0,0,0-.722.722V49.7h-1.6V39.24a.722.722,0,0,0-.722-.722H39.625a.722.722,0,0,0-.722.722V55.914a.722.722,0,0,0,.722.722h2.61a.722.722,0,1,0,0-1.444H40.347V53.543H43.41a4.637,4.637,0,0,0,4.631-4.631v-8.95h5.581V50.419a.722.722,0,0,0,.722.722h3.039a.722.722,0,0,0,.722-.722V39.962H71.381v1.857H69.474a.722.722,0,0,0-.722.722v9.914a.722.722,0,0,0,.722.722h1.906v2.016H68.3a.722.722,0,0,0-.722.722v3.039a.722.722,0,0,0,.722.722h3.085V71H67.926a.722.722,0,0,0-.722.722v3.069a.722.722,0,0,0,.722.722h7.216a.722.722,0,0,0,.722-.722V42.867A.722.722,0,0,0,75.142,42.145ZM46.6,48.912h0A3.191,3.191,0,0,1,43.41,52.1H40.347V39.962h.527v.467a.722.722,0,1,0,1.444,0v-.467h.433v1.91a.722.722,0,0,0,1.444,0v-1.91h.433v.467a.722.722,0,1,0,1.444,0v-.467H46.6v8.95Zm24.783,2.821H70.2v-8.47h1.184Z" transform="translate(-38.903 -38.518)" fill="#778ba0"/>
      </g>
    </g>
    <g id="Group_23" data-name="Group 23" transform="translate(0 0.001)">
      <g id="Group_22" data-name="Group 22" transform="translate(0 0)">
        <path id="Path_45" data-name="Path 45" d="M39.278,0H.722A.722.722,0,0,0,0,.723V39.279A.722.722,0,0,0,.722,40H26.248a.722.722,0,0,0,.722-.722V36.21a.722.722,0,0,0-.722-.722H22.242V28.46a.722.722,0,0,0-.722-.722H18.48a.722.722,0,0,0-.722.722v7.028H4.483V33.834h2.2a1.987,1.987,0,0,0,1.637-.862,4.574,4.574,0,0,0,2.107.5,3.833,3.833,0,0,0,4.084-3.509,3.137,3.137,0,0,0-.475-1.648.722.722,0,1,0-1.228.759,1.672,1.672,0,0,1,.26.889,2.409,2.409,0,0,1-2.64,2.065A3.081,3.081,0,0,1,8.667,31.5V28.426a3.081,3.081,0,0,1,1.755-.528,3.19,3.19,0,0,1,1.194.225.722.722,0,1,0,.538-1.34,4.626,4.626,0,0,0-1.732-.329,4.574,4.574,0,0,0-2.108.5,1.987,1.987,0,0,0-1.637-.861H4.483V24.167H24.407a.722.722,0,0,0,.722-.722V20.406a.722.722,0,0,0-.722-.722H8.681a.722.722,0,1,0,0,1.444h15v1.6H3.761a.722.722,0,0,0-.722.722V36.21a.722.722,0,0,0,.722.722H18.48a.722.722,0,0,0,.722-.722V29.182h1.6V36.21a.722.722,0,0,0,.722.722h4.006v1.626H1.444V1.445H38.556V4.792a.722.722,0,1,0,1.444,0V.723A.722.722,0,0,0,39.278,0ZM4.483,27.536h2.2a.546.546,0,0,1,.545.545v3.764a.546.546,0,0,1-.545.545h-2.2Z" transform="translate(0 -0.001)" fill="#778ba0"/>
      </g>
    </g>
    <g id="Group_25" data-name="Group 25" transform="translate(24.124 6.311)">
      <g id="Group_24" data-name="Group 24">
        <path id="Path_46" data-name="Path 46" d="M314.836,80.77h-5.329a.722.722,0,0,0-.722.722v9.914a.722.722,0,0,0,.722.722h5.329a.722.722,0,0,0,.722-.722V81.492A.722.722,0,0,0,314.836,80.77Zm-.722,7.556h-1.377V84.572h1.377Zm0-5.2h-2.1a.722.722,0,0,0-.722.722v5.2a.722.722,0,0,0,.722.722h2.1v.914h-3.886v-8.47h3.886Z" transform="translate(-308.785 -80.77)" fill="#778ba0"/>
      </g>
    </g>
    <g id="Group_27" data-name="Group 27" transform="translate(9.499 29.241)">
      <g id="Group_26" data-name="Group 26">
        <circle id="Ellipse_1" data-name="Ellipse 1" cx="0.722" cy="0.722" r="0.722" fill="#778ba0"/>
      </g>
    </g>
    <g id="Group_29" data-name="Group 29" transform="translate(6.887 13.246)">
      <g id="Group_28" data-name="Group 28">
        <circle id="Ellipse_2" data-name="Ellipse 2" cx="0.722" cy="0.722" r="0.722" fill="#778ba0"/>
      </g>
    </g>
  </g>
</svg>
