<svg xmlns="http://www.w3.org/2000/svg" width="96" height="101.715" viewBox="0 0 96 101.715">
  <g id="Group_215" data-name="Group 215" transform="translate(3062.5 -2574.381)">
    <line id="Line_54" data-name="Line 54" x2="96" transform="translate(-3062.5 2661.5)" fill="none" stroke="#f07b7b" stroke-width="1"/>
    <path id="Path_369" data-name="Path 369" d="M-4326.553-2870.92l46.735-62.313,29.354,39.01h-39.01l6.051-8.111h16.866l-13.261-17.252-36.563,48.667" transform="translate(1264.553 5507.615)" fill="#fff"/>
    <path id="Path_370" data-name="Path 370" d="M-4219-3696.113h9.573l-8.05,11.314h51.567l6.092,8.051h-74.2Z" transform="translate(1192.537 6313.399)" fill="#fff"/>
    <path id="Path_371" data-name="Path 371" d="M-43.114-12.286a5.4,5.4,0,0,1,2.324.456A3.4,3.4,0,0,1-39.3-10.513a3.926,3.926,0,0,1,.525,2.083A4.838,4.838,0,0,1-39-6.976a3.664,3.664,0,0,1-.714,1.291A3.461,3.461,0,0,1-41-4.765a4.827,4.827,0,0,1-1.928.344h-1.842V.158h-1.67V-12.286Zm.172,6.265a2.727,2.727,0,0,0,1.222-.241,2.082,2.082,0,0,0,.757-.611,2.461,2.461,0,0,0,.4-.783,2.676,2.676,0,0,0,.12-.74,2.738,2.738,0,0,0-.12-.783,2.037,2.037,0,0,0-.4-.74,2.156,2.156,0,0,0-.74-.551,2.634,2.634,0,0,0-1.127-.215h-1.928v4.665Zm6.145-.034a6.117,6.117,0,0,1,.491-2.436,6.5,6.5,0,0,1,1.368-2.031,6.572,6.572,0,0,1,2.022-1.394,6.022,6.022,0,0,1,2.47-.508,5.98,5.98,0,0,1,2.453.508,6.678,6.678,0,0,1,2.031,1.394,6.552,6.552,0,0,1,1.386,2.031,6.026,6.026,0,0,1,.5,2.436,6.172,6.172,0,0,1-.5,2.479,6.321,6.321,0,0,1-1.386,2.022,6.575,6.575,0,0,1-2.031,1.36A6.16,6.16,0,0,1-30.445.3a6.3,6.3,0,0,1-2.47-.482,6.421,6.421,0,0,1-2.022-1.343,6.175,6.175,0,0,1-1.368-2.014A6.353,6.353,0,0,1-36.8-6.055Zm1.721.017a4.644,4.644,0,0,0,.361,1.833,4.859,4.859,0,0,0,1,1.506,4.658,4.658,0,0,0,1.48,1.024,4.49,4.49,0,0,0,1.825.37,4.448,4.448,0,0,0,1.807-.37A4.463,4.463,0,0,0-27.14-2.7a5.02,5.02,0,0,0,.981-1.506,4.689,4.689,0,0,0,.361-1.85,4.771,4.771,0,0,0-.361-1.85,4.805,4.805,0,0,0-1-1.523,4.658,4.658,0,0,0-1.48-1.024,4.448,4.448,0,0,0-1.807-.37,4.4,4.4,0,0,0-1.825.379,4.777,4.777,0,0,0-1.48,1.033,4.573,4.573,0,0,0-.981,1.523A4.979,4.979,0,0,0-35.075-6.038ZM-21.1-12.286h1.67V.158H-21.1ZM-4.9.554l-9.622-9.759.482.12.034,9.243h-1.67V-12.665h.086l9.518,9.794-.4-.086L-6.5-12.286H-4.85V.554Zm2.892-12.84H6.252v1.6H2.912V.158H1.243V-10.686H-2.01Zm11.085,0h1.67V-1.443h6.317v1.6H9.074Zm10.878,0h1.67V.158h-1.67ZM36.149.554,26.528-9.205l.482.12L27.044.158h-1.67V-12.665h.086l9.518,9.794-.4-.086-.034-9.329H36.2V.554Zm3.8-12.84h8.09v1.6h-6.42V-6.9h5.732v1.6H41.623v3.856h6.661v1.6H39.953Z" transform="translate(-3015.564 2655.918)" fill="#fff"/>
    <path id="Path_372" data-name="Path 372" d="M-46.932,0l3.6-8.892h.048L-39.684,0h-.66l-3.132-7.956.408-.228L-46.344,0Zm1.74-3.372h3.78l.168.552h-4.092ZM-33.36-8.52a3.4,3.4,0,0,1,.954.138,2.657,2.657,0,0,1,.864.432,2.217,2.217,0,0,1,.63.75,2.316,2.316,0,0,1,.24,1.092,3.033,3.033,0,0,1-.144.93,2.2,2.2,0,0,1-.468.81,2.307,2.307,0,0,1-.84.576,3.3,3.3,0,0,1-1.272.216h-1.32V0H-35.3V-8.52Zm-.072,4.38a2.692,2.692,0,0,0,1.056-.18,1.722,1.722,0,0,0,.66-.468,1.765,1.765,0,0,0,.342-.63,2.325,2.325,0,0,0,.1-.666,1.876,1.876,0,0,0-.138-.72,1.756,1.756,0,0,0-.4-.594,1.931,1.931,0,0,0-.636-.408,2.2,2.2,0,0,0-.828-.15h-1.44V-4.14Zm1.224.264L-29.844,0h-.684L-32.9-3.864ZM-19.26-.564A5.211,5.211,0,0,1-19.9-.24a4.082,4.082,0,0,1-.792.246,4.589,4.589,0,0,1-.936.09,4.405,4.405,0,0,1-1.764-.342,4.07,4.07,0,0,1-1.356-.936,4.22,4.22,0,0,1-.87-1.368A4.447,4.447,0,0,1-25.92-4.2,4.612,4.612,0,0,1-25.6-5.94a4.256,4.256,0,0,1,.912-1.4,4.251,4.251,0,0,1,1.368-.936,4.231,4.231,0,0,1,1.692-.336,4.283,4.283,0,0,1,1.26.18,4.794,4.794,0,0,1,1.068.468l-.252.54a4.507,4.507,0,0,0-.948-.444,3.435,3.435,0,0,0-1.116-.18,3.524,3.524,0,0,0-1.428.294,3.723,3.723,0,0,0-1.182.816,3.807,3.807,0,0,0-.8,1.218,3.884,3.884,0,0,0-.288,1.5,4.08,4.08,0,0,0,.258,1.452,3.566,3.566,0,0,0,.744,1.2,3.466,3.466,0,0,0,1.17.81,3.821,3.821,0,0,0,1.524.294,3.606,3.606,0,0,0,1.146-.174,4.077,4.077,0,0,0,.93-.438Zm10.9-7.956V0h-.588V-4.008h-5.136V0h-.588V-8.52h.588v3.96h5.136V-8.52Zm5.124,0h.588V0H-3.24Zm5.028,0h5.58v.564H4.86V0H4.272V-7.956H1.788Zm10.02,0h5.256v.564H12.4v3.384h4.2v.564H12.4V-.564h4.836V0H11.808Zm16.2,7.956a5.211,5.211,0,0,1-.636.324,4.082,4.082,0,0,1-.792.246,4.589,4.589,0,0,1-.936.09A4.405,4.405,0,0,1,23.88-.246a4.07,4.07,0,0,1-1.356-.936,4.22,4.22,0,0,1-.87-1.368,4.447,4.447,0,0,1-.306-1.65,4.612,4.612,0,0,1,.324-1.74,4.256,4.256,0,0,1,.912-1.4,4.251,4.251,0,0,1,1.368-.936,4.231,4.231,0,0,1,1.692-.336,4.283,4.283,0,0,1,1.26.18,4.794,4.794,0,0,1,1.068.468l-.252.54a4.507,4.507,0,0,0-.948-.444,3.435,3.435,0,0,0-1.116-.18,3.524,3.524,0,0,0-1.428.294,3.723,3.723,0,0,0-1.182.816,3.807,3.807,0,0,0-.8,1.218,3.884,3.884,0,0,0-.288,1.5,4.08,4.08,0,0,0,.258,1.452,3.566,3.566,0,0,0,.744,1.2,3.466,3.466,0,0,0,1.17.81,3.821,3.821,0,0,0,1.524.294A3.606,3.606,0,0,0,26.8-.642a4.077,4.077,0,0,0,.93-.438Zm3.9-7.956h5.58v.564H34.98V0h-.588V-7.956H31.908Zm14.28.96a5.836,5.836,0,0,0-.912-.336,3.875,3.875,0,0,0-1.08-.156,2.032,2.032,0,0,0-1.344.42,1.318,1.318,0,0,0-.5,1.056,1.144,1.144,0,0,0,.288.8,2.379,2.379,0,0,0,.756.54q.468.222,1,.426.42.156.834.348a3.485,3.485,0,0,1,.75.468,2.005,2.005,0,0,1,.534.684A2.3,2.3,0,0,1,46.7-2.3a2.344,2.344,0,0,1-.336,1.254,2.258,2.258,0,0,1-.936.846A3.074,3.074,0,0,1,44.04.1,4.035,4.035,0,0,1,42.882-.06a4.863,4.863,0,0,1-.912-.366q-.39-.21-.618-.354l.276-.48a4.768,4.768,0,0,0,.642.384,4.885,4.885,0,0,0,.822.324,3.1,3.1,0,0,0,.888.132,2.565,2.565,0,0,0,1-.2,1.946,1.946,0,0,0,.8-.618,1.674,1.674,0,0,0,.318-1.05,1.546,1.546,0,0,0-.3-.99,2.308,2.308,0,0,0-.768-.618,8.684,8.684,0,0,0-1-.432q-.408-.156-.816-.33a3.732,3.732,0,0,1-.744-.42,1.889,1.889,0,0,1-.534-.594,1.673,1.673,0,0,1-.2-.84,1.845,1.845,0,0,1,.312-1.068,2.117,2.117,0,0,1,.846-.714,2.885,2.885,0,0,1,1.218-.27,4.963,4.963,0,0,1,1.218.156,4.861,4.861,0,0,1,1.074.4Z" transform="translate(-3015 2676)" fill="#fff"/>
  </g>
</svg>
