<svg xmlns="http://www.w3.org/2000/svg" width="127.021" height="132.156" viewBox="0 0 127.021 132.156">
  <g id="Group_53" data-name="Group 53" transform="translate(13274.5 -5631.381)">
    <g id="Group_51" data-name="Group 51" transform="translate(-13272.536 5631.381)">
      <path id="Path_35" data-name="Path 35" d="M-4326.554-2851.635l61.2-81.6,38.44,51.084H-4278l7.924-10.621h22.086l-17.366-22.592-47.88,63.729" transform="translate(4326.554 2933.234)" fill="#e4e4ef"/>
      <path id="Path_36" data-name="Path 36" d="M-4214.353-3696.113h12.536l-10.542,14.816h67.527l7.978,10.542h-97.159Z" transform="translate(4260.89 3752.297)" fill="#e4e4ef"/>
    </g>
    <path id="Path_147" data-name="Path 147" d="M11.381-50.572a7.33,7.33,0,0,1,3.165.624,4.591,4.591,0,0,1,2.017,1.783,5.322,5.322,0,0,1,.7,2.808,6.368,6.368,0,0,1-.3,1.917,5.191,5.191,0,0,1-.936,1.738,4.463,4.463,0,0,1-1.694,1.248,6.413,6.413,0,0,1-2.6.468H9.4v5.638H6.79V-50.572Zm.357,8.09a3.169,3.169,0,0,0,1.426-.29,2.427,2.427,0,0,0,.9-.735,3.074,3.074,0,0,0,.468-.936,3.114,3.114,0,0,0,.145-.869,3.231,3.231,0,0,0-.134-.858,2.9,2.9,0,0,0-.446-.914,2.32,2.32,0,0,0-.869-.713,3.187,3.187,0,0,0-1.426-.279H9.4v5.594Zm7.889.045a7.936,7.936,0,0,1,.646-3.187,8.679,8.679,0,0,1,1.783-2.652A8.342,8.342,0,0,1,24.7-50.092a7.953,7.953,0,0,1,3.22-.657,7.9,7.9,0,0,1,3.2.657,8.474,8.474,0,0,1,2.652,1.816,8.746,8.746,0,0,1,1.805,2.652,7.82,7.82,0,0,1,.657,3.187,7.953,7.953,0,0,1-.657,3.22,8.433,8.433,0,0,1-1.805,2.641A8.347,8.347,0,0,1,31.115-34.8a8.137,8.137,0,0,1-3.2.635,8.169,8.169,0,0,1-3.231-.635,8.342,8.342,0,0,1-2.63-1.761,8.238,8.238,0,0,1-1.783-2.63A8.126,8.126,0,0,1,19.627-42.437Zm2.674,0a5.815,5.815,0,0,0,.435,2.251,5.706,5.706,0,0,0,1.215,1.839,5.706,5.706,0,0,0,1.805,1.237,5.529,5.529,0,0,0,2.229.446,5.34,5.34,0,0,0,2.173-.446,5.483,5.483,0,0,0,1.772-1.237,5.9,5.9,0,0,0,1.192-1.839,5.815,5.815,0,0,0,.435-2.251,5.745,5.745,0,0,0-.446-2.273,6.21,6.21,0,0,0-1.2-1.85,5.372,5.372,0,0,0-1.783-1.248,5.473,5.473,0,0,0-2.206-.446,5.473,5.473,0,0,0-2.206.446,5.494,5.494,0,0,0-1.794,1.248A5.745,5.745,0,0,0,22.724-44.7,6.034,6.034,0,0,0,22.3-42.437Zm17.606-8.134h2.607v16.224H39.907Zm21.55,16.8L49-45.847l.758.312.067,11.187h-2.63V-51.129h.134L59.585-39.05l-.6-.178-.045-11.343h2.585v16.8Zm3.61-16.8H75.92v2.5h-4.19v13.728H69.146V-48.076H65.067Zm14.374,0h2.607v13.728h7.978v2.5H79.442Zm14.263,0h2.607v16.224H93.7Zm21.55,16.8L102.8-45.847l.758.312.067,11.187h-2.63V-51.129h.134L113.383-39.05l-.6-.178-.045-11.343h2.585v16.8Zm4.769-16.8h10.764v2.5h-8.157v4.323H129.9v2.5h-7.265v4.413H131.1v2.5H120.024Z" transform="translate(-13279.601 5776.406)" fill="#e4e4ef"/>
    <line id="Line_20" data-name="Line 20" x2="127.021" transform="translate(-13274.5 5746.772)" fill="none" stroke="#f07b7b" stroke-width="1"/>
    <path id="Path_148" data-name="Path 148" d="M4.278-37.485l4.9-12.354h.034l4.9,12.354h-.37l-4.645-11.8.219-.05-4.7,11.849Zm2.037-4.729h5.773l.034.3H6.281ZM19.745-49.3a4.088,4.088,0,0,1,1.1.168,3.722,3.722,0,0,1,1.128.539,2.889,2.889,0,0,1,.867.968,2.962,2.962,0,0,1,.337,1.473,3.837,3.837,0,0,1-.2,1.237,3,3,0,0,1-.631,1.069,3,3,0,0,1-1.119.749,4.568,4.568,0,0,1-1.7.278H17.658v5.335h-.337V-49.3Zm-.269,6.16a4.359,4.359,0,0,0,1.658-.269,2.62,2.62,0,0,0,1.018-.707,2.687,2.687,0,0,0,.53-.968,3.629,3.629,0,0,0,.16-1.052,2.724,2.724,0,0,0-.244-1.153,2.761,2.761,0,0,0-.665-.909,2.95,2.95,0,0,0-.976-.581,3.47,3.47,0,0,0-1.195-.2h-2.1v5.84Zm1.548.017,3.383,5.638H24.02l-3.383-5.638Zm14.525,4.915a6.83,6.83,0,0,1-.934.446,6.177,6.177,0,0,1-1.052.3,6,6,0,0,1-1.161.109,6.169,6.169,0,0,1-2.449-.471,5.688,5.688,0,0,1-1.893-1.3,5.712,5.712,0,0,1-1.212-1.91,6.3,6.3,0,0,1-.421-2.3,6.151,6.151,0,0,1,.463-2.39,6.031,6.031,0,0,1,1.288-1.944,6.028,6.028,0,0,1,1.919-1.3,5.85,5.85,0,0,1,2.339-.471,5.856,5.856,0,0,1,1.641.227,6.478,6.478,0,0,1,1.473.631l-.168.286a5.819,5.819,0,0,0-1.389-.606,5.524,5.524,0,0,0-1.557-.219,5.491,5.491,0,0,0-2.2.446,5.549,5.549,0,0,0-1.809,1.245,6,6,0,0,0-1.22,1.851,5.738,5.738,0,0,0-.446,2.264,5.941,5.941,0,0,0,.4,2.154,5.461,5.461,0,0,0,1.136,1.809,5.3,5.3,0,0,0,1.776,1.229,5.835,5.835,0,0,0,2.331.446,5.307,5.307,0,0,0,1.565-.227,6.618,6.618,0,0,0,1.38-.6ZM47.347-49.3v11.815h-.337v-5.79H39.3v5.79h-.337V-49.3H39.3v5.706h7.708V-49.3Zm4.157,0h.337v11.815H51.5Zm3.5,0H62.68v.32H59.011v11.5h-.337v-11.5H55.005Zm10.856,0h7.052v.32H66.2v5.369h6.059v.32H66.2V-37.8h6.951v.32H65.861ZM85.014-38.209a6.83,6.83,0,0,1-.934.446,6.176,6.176,0,0,1-1.052.3,6,6,0,0,1-1.161.109,6.168,6.168,0,0,1-2.449-.471,5.688,5.688,0,0,1-1.893-1.3,5.713,5.713,0,0,1-1.212-1.91,6.3,6.3,0,0,1-.421-2.3,6.151,6.151,0,0,1,.463-2.39,6.031,6.031,0,0,1,1.288-1.944,6.028,6.028,0,0,1,1.919-1.3,5.85,5.85,0,0,1,2.339-.471,5.856,5.856,0,0,1,1.641.227,6.477,6.477,0,0,1,1.473.631l-.168.286a5.82,5.82,0,0,0-1.389-.606,5.524,5.524,0,0,0-1.557-.219,5.491,5.491,0,0,0-2.2.446,5.549,5.549,0,0,0-1.809,1.245,6,6,0,0,0-1.22,1.851,5.738,5.738,0,0,0-.446,2.264,5.941,5.941,0,0,0,.4,2.154,5.461,5.461,0,0,0,1.136,1.809,5.3,5.3,0,0,0,1.776,1.229,5.835,5.835,0,0,0,2.331.446,5.307,5.307,0,0,0,1.565-.227,6.618,6.618,0,0,0,1.38-.6ZM87.421-49.3H95.1v.32H91.427v11.5H91.09v-11.5H87.421ZM98.6-41.356a4.1,4.1,0,0,0,.454,2A3.082,3.082,0,0,0,100.3-38.1a3.715,3.715,0,0,0,1.8.429,3.764,3.764,0,0,0,1.809-.429,3.068,3.068,0,0,0,1.254-1.254,4.1,4.1,0,0,0,.454-2V-49.3h.337v7.978a4.277,4.277,0,0,1-.513,2.18,3.4,3.4,0,0,1-1.38,1.338,4.159,4.159,0,0,1-1.961.454h0a4.159,4.159,0,0,1-1.961-.454,3.349,3.349,0,0,1-1.372-1.338,4.334,4.334,0,0,1-.5-2.18V-49.3H98.6ZM112.532-49.3a4.088,4.088,0,0,1,1.1.168,3.722,3.722,0,0,1,1.128.539,2.89,2.89,0,0,1,.867.968,2.963,2.963,0,0,1,.337,1.473,3.837,3.837,0,0,1-.2,1.237,3,3,0,0,1-.631,1.069,3,3,0,0,1-1.119.749,4.569,4.569,0,0,1-1.7.278h-1.868v5.335h-.337V-49.3Zm-.269,6.16a4.359,4.359,0,0,0,1.658-.269,2.62,2.62,0,0,0,1.018-.707,2.687,2.687,0,0,0,.53-.968,3.628,3.628,0,0,0,.16-1.052,2.724,2.724,0,0,0-.244-1.153,2.761,2.761,0,0,0-.665-.909,2.95,2.95,0,0,0-.976-.581,3.47,3.47,0,0,0-1.195-.2h-2.1v5.84Zm1.548.017,3.383,5.638h-.387l-3.383-5.638Zm6.85-6.177h7.052v.32H121v5.369h6.059v.32H121V-37.8h6.951v.32h-7.288Z" transform="translate(-13276.449 5800.887)" fill="#e4e4ef"/>
  </g>
</svg>
