<svg xmlns="http://www.w3.org/2000/svg" width="40" height="40" viewBox="0 0 40 40">
  <g id="network-connection-online-houses-homes" transform="translate(-2 -2.001)" style="isolation: isolate">
    <rect id="Rectangle_35" data-name="Rectangle 35" width="4" height="2" transform="translate(10 12.483)" fill="#778ba0"/>
    <rect id="Rectangle_36" data-name="Rectangle 36" width="4" height="2" transform="translate(20 12.483)" fill="#778ba0"/>
    <rect id="Rectangle_37" data-name="Rectangle 37" width="4" height="2" transform="translate(30 12.483)" fill="#778ba0"/>
    <rect id="Rectangle_38" data-name="Rectangle 38" width="4" height="2" transform="translate(10 36.001)" fill="#778ba0"/>
    <rect id="Rectangle_39" data-name="Rectangle 39" width="4" height="2" transform="translate(20 36.001)" fill="#778ba0"/>
    <rect id="Rectangle_40" data-name="Rectangle 40" width="4" height="2" transform="translate(30 36.001)" fill="#778ba0"/>
    <path id="Path_47" data-name="Path 47" d="M39.333,16.667A.667.667,0,0,0,40,16v-4.96l.893.793a.667.667,0,0,0,.44.167.652.652,0,0,0,.273-.06A.667.667,0,0,0,42,11.334V8a.654.654,0,0,0-.227-.5l-6-5.333a.667.667,0,0,0-.88,0l-6,5.333a.654.654,0,0,0-.227.5.654.654,0,0,0-.227-.5l-6-5.333a.667.667,0,0,0-.88,0l-6,5.333a.654.654,0,0,0-.227.5.654.654,0,0,0-.227-.5l-6-5.333a.667.667,0,0,0-.88,0l-6,5.333A.654.654,0,0,0,2,8v3.333a.667.667,0,0,0,.393.607.651.651,0,0,0,.713-.107L4,11.041V16a.667.667,0,0,0,.667.667H8v3.453a1.992,1.992,0,0,0,0,3.76V27.7L2.227,32.834a.654.654,0,0,0-.227.5v3.333a.667.667,0,0,0,.393.607.651.651,0,0,0,.713-.107L4,36.374v4.96A.667.667,0,0,0,4.667,42h8a.667.667,0,0,0,.667-.667v-4.96l.893.793a.667.667,0,0,0,.44.167.652.652,0,0,0,.273-.06.667.667,0,0,0,.393-.607.667.667,0,0,0,.393.607.651.651,0,0,0,.713-.107l.893-.793v4.96A.667.667,0,0,0,18,42h8a.667.667,0,0,0,.667-.667v-4.96l.893.793a.667.667,0,0,0,.44.167.652.652,0,0,0,.273-.06.667.667,0,0,0,.393-.607.667.667,0,0,0,.393.607.651.651,0,0,0,.713-.107l.893-.793v4.96a.667.667,0,0,0,.667.667h8A.667.667,0,0,0,40,41.335v-4.96l.893.793a.667.667,0,0,0,.44.167.652.652,0,0,0,.273-.06A.667.667,0,0,0,42,36.668V33.334a.654.654,0,0,0-.227-.5L36,27.7v-3.82a1.992,1.992,0,0,0,0-3.76V16.667ZM30,8.3l5.333-4.74L40.667,8.3V9.847L35.773,5.5a.667.667,0,0,0-.88,0L30,9.847ZM28,12a.652.652,0,0,0,.273-.06.667.667,0,0,0,.393-.607.667.667,0,0,0,.393.607.651.651,0,0,0,.713-.107l.893-.793V16a.667.667,0,0,0,.667.667h3.333v3.453a2.023,2.023,0,0,0-1.213,1.213H23.88a2.023,2.023,0,0,0-1.213-1.213V16.667H26A.667.667,0,0,0,26.667,16v-4.96l.893.793A.667.667,0,0,0,28,12Zm-9.333,3.333V9.854L22,6.894l3.333,2.96v5.48Zm4,6.667A.667.667,0,1,1,22,21.334.667.667,0,0,1,22.667,22Zm-6-13.7L22,3.56,27.333,8.3V9.847L22.44,5.5a.667.667,0,0,0-.88,0L16.667,9.847Zm-2,3.7a.652.652,0,0,0,.273-.06.667.667,0,0,0,.393-.607.667.667,0,0,0,.393.607.651.651,0,0,0,.713-.107l.893-.793V16a.667.667,0,0,0,.667.667h3.333v3.453a2.023,2.023,0,0,0-1.213,1.213H10.547a2.023,2.023,0,0,0-1.213-1.213V16.667h3.333A.667.667,0,0,0,13.333,16v-4.96l.893.793A.667.667,0,0,0,14.667,12ZM3.333,9.847V8.3L8.667,3.56,14,8.3V9.847L9.107,5.5a.667.667,0,0,0-.88,0Zm2,5.487V9.854l3.333-2.96L12,9.854v5.48Zm3.333,6A.667.667,0,1,1,8,22,.667.667,0,0,1,8.667,21.334ZM12,40.668H5.333v-5.48l3.333-2.96L12,35.188Zm2-5.487L9.107,30.834a.667.667,0,0,0-.88,0L3.333,35.181V33.634l5.333-4.74L14,33.634Zm1.56-2.347a.654.654,0,0,0-.227.5.654.654,0,0,0-.227-.5L9.333,27.7v-3.82a2.023,2.023,0,0,0,1.213-1.213H20.12a2.023,2.023,0,0,0,1.213,1.213V27.7Zm9.773,7.833H18.667v-5.48L22,32.228l3.333,2.96Zm2-5.487L22.44,30.834a.667.667,0,0,0-.88,0l-4.893,4.347V33.634L22,28.894l5.333,4.74Zm1.56-2.347a.654.654,0,0,0-.227.5.654.654,0,0,0-.227-.5L22.667,27.7v-3.82a2.023,2.023,0,0,0,1.213-1.213h9.573a2.023,2.023,0,0,0,1.213,1.213V27.7Zm9.773,7.833H32v-5.48l3.333-2.96,3.333,2.96Zm2-7.033v1.547l-4.893-4.347a.667.667,0,0,0-.88,0L30,35.181V33.634l5.333-4.74ZM35.333,22.668A.667.667,0,1,1,36,22,.667.667,0,0,1,35.333,22.668ZM32,15.334V9.854l3.333-2.96,3.333,2.96v5.48Z" transform="translate(0)" fill="#778ba0"/>
  </g>
</svg>
