<svg xmlns="http://www.w3.org/2000/svg" width="40" height="40" viewBox="0 0 40 40">
  <path id="Path_155" data-name="Path 155" d="M40,14c0-1.674-2.395-4.029-2.875-4.484a.666.666,0,0,0-.917,0c-.48.455-2.875,2.809-2.875,4.484a3.319,3.319,0,0,0,1.333,2.65V26H31.333V16A.667.667,0,0,0,30,16v2.667H27.333V14c0-3.566-5.314-7.43-6.667-8.356V4.667h.667a.667.667,0,0,0,0-1.333h-.667V.667a.667.667,0,0,0-1.333,0V3.333h-.667a.667.667,0,1,0,0,1.333h.667v.978c-1.353.926-6.667,4.79-6.667,8.356v4.667H10V16a.667.667,0,0,0-1.333,0V26H5.333V16.65A3.319,3.319,0,0,0,6.667,14c0-1.674-2.395-4.029-2.875-4.484a.666.666,0,0,0-.917,0C2.395,9.971,0,12.326,0,14a3.319,3.319,0,0,0,1.333,2.65V36A1.335,1.335,0,0,0,0,37.333v2A.667.667,0,0,0,.667,40H39.333A.667.667,0,0,0,40,39.333v-2A1.335,1.335,0,0,0,38.667,36V16.65A3.319,3.319,0,0,0,40,14Zm-3.333-3.058c.944.987,2,2.357,2,3.058a2,2,0,0,1-4,0c0-.7,1.056-2.071,2-3.058ZM20,6.8c1.8,1.232,5.319,4.1,5.907,6.532H14.093C14.681,10.9,18.2,8.035,20,6.8Zm-6,7.865H26v4H22V18a2,2,0,1,0-4,0v.667H14Zm6.667,4H19.333V18a.667.667,0,1,1,1.333,0ZM10,20H30v6H28.667V24a2,2,0,0,0-4,0v2H22V24a2,2,0,0,0-4,0v2H15.333V24a2,2,0,0,0-4,0v2H10Zm17.333,6H26V24a.667.667,0,0,1,1.333,0Zm-6.667,0H19.333V24a.667.667,0,0,1,1.333,0ZM14,26H12.667V24A.667.667,0,0,1,14,24ZM9.333,27.333H34.667V36H33.333V31.333a2,2,0,1,0-4,0V36H28V31.333a2,2,0,0,0-4,0V36H22V31.333a2,2,0,1,0-4,0V36H16V31.333a2,2,0,1,0-4,0V36H10.667V31.333a2,2,0,0,0-4,0V36H5.333V27.333ZM32,36H30.667V31.333a.667.667,0,0,1,1.333,0Zm-5.333,0H25.333V31.333a.667.667,0,0,1,1.333,0Zm-6,0H19.333V31.333a.667.667,0,0,1,1.333,0Zm-6,0H13.333V31.333a.667.667,0,0,1,1.333,0ZM9.333,36H8V31.333a.667.667,0,0,1,1.333,0Zm-6-25.058c.944.987,2,2.357,2,3.058a2,2,0,0,1-4,0C1.333,13.3,2.389,11.929,3.334,10.942Zm-.667,6.324a3.332,3.332,0,0,0,1.333,0V36H2.667Zm36,21.4H1.333V37.333H38.667ZM37.333,36H36V17.266a3.332,3.332,0,0,0,1.333,0Z" fill="#778ba0"/>
</svg>
