<svg xmlns="http://www.w3.org/2000/svg" width="40.912" height="37.421" viewBox="0 0 40.912 37.421">
  <g id="Group_58" data-name="Group 58" transform="translate(6319.297 -1299.324)" style="isolation: isolate">
    <path id="Path_57" data-name="Path 57" d="M-6315.333,1336.207h0l33.008.038v-13.073h3.144l-3.144-6.517h0l.013-10.686h2.953l-2.353-6.144h-34.35l-2.492,6.057,2.819.025.094,10.633-2.722,6.326h2.722v13.878" fill="none" stroke="#778ba0" stroke-width="1.5"/>
    <path id="Path_58" data-name="Path 58" d="M-6302.757,1336.191v-8.818h7.484v8.818" fill="none" stroke="#778ba0" stroke-width="1.5"/>
    <path id="Path_59" data-name="Path 59" d="M-6315.579,1316.524h33.3" fill="none" stroke="#778ba0" stroke-width="1.5"/>
    <path id="Path_60" data-name="Path 60" d="M-6315.579,1316.524h32.781" transform="translate(0 -10.602)" fill="none" stroke="#778ba0" stroke-width="1.5"/>
    <path id="Path_61" data-name="Path 61" d="M-6312.484,1308.668h5.279v4.978h-5.279Z" fill="none" stroke="#778ba0" stroke-width="1.5"/>
    <path id="Path_62" data-name="Path 62" d="M-6312.484,1308.668h5.279v4.978h-5.279Z" transform="translate(11)" fill="none" stroke="#778ba0" stroke-width="1.5"/>
    <path id="Path_63" data-name="Path 63" d="M-6312.484,1308.668h5.279v4.978h-5.279Z" transform="translate(22)" fill="none" stroke="#778ba0" stroke-width="1.5"/>
    <path id="Path_64" data-name="Path 64" d="M-6312.484,1308.668h5.279v4.978h-5.279Z" transform="translate(22 18)" fill="none" stroke="#778ba0" stroke-width="1.5"/>
    <path id="Path_65" data-name="Path 65" d="M-6312.484,1308.668h5.279v4.978h-5.279Z" transform="translate(0 18)" fill="none" stroke="#778ba0" stroke-width="1.5"/>
    <path id="Path_66" data-name="Path 66" d="M-6315.58,1323.1h35.949" transform="translate(0 -0.244)" fill="none" stroke="#778ba0" stroke-width="1.5"/>
  </g>
</svg>
