<svg xmlns="http://www.w3.org/2000/svg" width="39.939" height="33.34" viewBox="0 0 39.939 33.34">
  <g id="Layer_2" data-name="Layer 2" transform="translate(2.369 0.94)">
    <g id="Layer_1" data-name="Layer 1">
      <path id="Path_40" data-name="Path 40" d="M0,28.23l9.73-2.87-.06-.85c-2.91-.83-5.41-2.13-6.45-5.35l2.63-.33C2.41,17,.33,14.74.27,11.11L3.34,12C.5,8.72-.79,5.56,1.3,1.53c4.43,4.66,9.5,7.79,16.11,7.92-.32-3.67.76-6.56,3.9-8.38s6-1.13,9.13.63c1.2.68,3.26-.16,5.16-.32L33.5,4.56l2.74-.39c0,.13.12.32.08.35-2.82,2.13-3,5.25-3.67,8.43C28.86,31.41,9.78,34.57,0,28.23Z" transform="translate(0 0.002)" fill="#F28C8C" stroke="#F28C8C" stroke-width="2"/>
    </g>
  </g>
</svg>
