<svg xmlns="http://www.w3.org/2000/svg" width="24.722" height="24.529" viewBox="0 0 24.722 24.529">
  <g id="Group_213" data-name="Group 213" transform="translate(12840.374 -5800.183)">
    <path id="Path_354" data-name="Path 354" d="M-12874.874,5886.556l7.758-3.847v-6.027h8.142v6.027h7.822v17.5h-23.722Z" transform="translate(35 -76)" fill="none" stroke="#778ba0" stroke-linecap="round" stroke-linejoin="round" stroke-width="1"/>
    <path id="Path_355" data-name="Path 355" d="M-12867.281,5882.734v17.209" transform="translate(35.181 -76)" fill="none" stroke="#778ba0" stroke-width="1"/>
    <path id="Path_356" data-name="Path 356" d="M-12867.281,5882.734v17.209l.24.491" transform="translate(43.281 -76)" fill="none" stroke="#778ba0" stroke-width="1"/>
    <path id="Path_357" data-name="Path 357" d="M-12864.606,5880.411h3.249" transform="translate(35 -76)" fill="none" stroke="#778ba0" stroke-linecap="round" stroke-width="1"/>
    <path id="Path_358" data-name="Path 358" d="M-12864.606,5880.411h3.249" transform="translate(35 -73)" fill="none" stroke="#778ba0" stroke-linecap="round" stroke-width="1"/>
    <path id="Path_359" data-name="Path 359" d="M-12864.606,5880.411h3.249" transform="translate(35 -70)" fill="none" stroke="#778ba0" stroke-linecap="round" stroke-width="1"/>
    <path id="Path_360" data-name="Path 360" d="M-12864.606,5880.411h3.249" transform="translate(35 -67)" fill="none" stroke="#778ba0" stroke-linecap="round" stroke-width="1"/>
    <path id="Path_361" data-name="Path 361" d="M-12864.606,5880.411h3.249" transform="translate(35 -64)" fill="none" stroke="#778ba0" stroke-linecap="round" stroke-width="1"/>
    <path id="Path_362" data-name="Path 362" d="M-12864.606,5880.411h3.249" transform="translate(35 -61)" fill="none" stroke="#778ba0" stroke-linecap="round" stroke-width="1"/>
    <path id="Path_363" data-name="Path 363" d="M-12864.606,5880.411h3.249" transform="translate(27 -67)" fill="none" stroke="#778ba0" stroke-linecap="round" stroke-width="1"/>
    <path id="Path_364" data-name="Path 364" d="M-12864.606,5880.411h3.249" transform="translate(43 -67)" fill="none" stroke="#778ba0" stroke-linecap="round" stroke-width="1"/>
    <path id="Path_365" data-name="Path 365" d="M-12864.606,5880.411h3.249" transform="translate(27 -64)" fill="none" stroke="#778ba0" stroke-linecap="round" stroke-width="1"/>
    <path id="Path_366" data-name="Path 366" d="M-12864.606,5880.411h3.249" transform="translate(43 -64)" fill="none" stroke="#778ba0" stroke-linecap="round" stroke-width="1"/>
    <path id="Path_367" data-name="Path 367" d="M-12864.606,5880.411h3.249" transform="translate(27 -61)" fill="none" stroke="#778ba0" stroke-linecap="round" stroke-width="1"/>
    <path id="Path_368" data-name="Path 368" d="M-12864.606,5880.411h3.249" transform="translate(43 -61)" fill="none" stroke="#778ba0" stroke-linecap="round" stroke-width="1"/>
  </g>
</svg>
