<svg xmlns="http://www.w3.org/2000/svg" width="40.788" height="42.381" viewBox="0 0 40.788 42.381">
  <g id="ventilation" transform="translate(-29.847 -15.993)" style="isolation: isolate">
    <path id="Path_79" data-name="Path 79" d="M56.15,194.535a.473.473,0,0,1-.162-.918l6.2-2.263V184.4a.473.473,0,1,1,.946,0v7.287a.473.473,0,0,1-.311.444l-6.51,2.377a.469.469,0,0,1-.162.029Z" transform="translate(-20.943 -136.162)" fill="#778ba0"/>
    <path id="Path_80" data-name="Path 80" d="M62.659,126.872a.473.473,0,0,1-.473-.473v-7.557l-6.2-2.295a.473.473,0,0,1,.328-.887l6.51,2.409a.473.473,0,0,1,.309.444V126.4A.473.473,0,0,1,62.659,126.872Z" transform="translate(-20.943 -80.788)" fill="#778ba0"/>
    <g id="Group_34" data-name="Group 34" transform="translate(29.847 35.116)">
      <path id="Path_81" data-name="Path 81" d="M163.019,126.078a.473.473,0,0,1-.473-.473v-2.519H149.907a.473.473,0,0,1,0-.946h13.112a.473.473,0,0,1,.473.473v1.85l2.886-2.886-2.886-2.886v2.031a.473.473,0,0,1-.473.473H149.811a.473.473,0,1,1,0-.946h12.735v-2.7a.473.473,0,0,1,.807-.334l4.028,4.028a.473.473,0,0,1,0,.669l-4.028,4.028A.472.472,0,0,1,163.019,126.078Z" transform="translate(-126.732 -117.075)" fill="#778ba0"/>
      <path id="Path_82" data-name="Path 82" d="M42.147,163.7H30.32a.473.473,0,1,1,0-.946H41.932l4.046-4.647a.473.473,0,0,1,.713.621L42.5,163.54A.473.473,0,0,1,42.147,163.7Z" transform="translate(-29.847 -150.215)" fill="#778ba0"/>
      <path id="Path_83" data-name="Path 83" d="M41.286,149.463H30.32a.473.473,0,1,1,0-.946H41.071l4.908-5.636a.473.473,0,1,1,.713.621l-5.049,5.8A.473.473,0,0,1,41.286,149.463Z" transform="translate(-29.847 -137.867)" fill="#778ba0"/>
    </g>
    <g id="Group_35" data-name="Group 35" transform="translate(29.847 15.993)">
      <path id="Path_84" data-name="Path 84" d="M208.066,111.207a.473.473,0,0,0-.473.473v2.391a.473.473,0,1,0,.946,0V111.68A.473.473,0,0,0,208.066,111.207Z" transform="translate(-173.966 -93.194)" fill="#778ba0"/>
      <path id="Path_85" data-name="Path 85" d="M73.32,122.861a.473.473,0,0,0-.473.473v14.882H58.073V116.1a.473.473,0,0,0-.473-.473H44.58a.473.473,0,0,0-.473.473v9.031a.473.473,0,0,0,.946,0v-8.558H57.127v21.639H45.053v-7.4a.473.473,0,1,0-.946,0v7.4H42.353v-7.4a.473.473,0,1,0-.946,0v7.878a.473.473,0,0,0,.473.473H73.32a.473.473,0,0,0,.473-.473V123.334A.473.473,0,0,0,73.32,122.861Z" transform="translate(-39.22 -96.781)" fill="#778ba0"/>
      <path id="Path_86" data-name="Path 86" d="M41.88,122.021a.473.473,0,0,0,.473-.473V111.68a.473.473,0,0,0-.946,0v9.868A.473.473,0,0,0,41.88,122.021Z" transform="translate(-39.22 -93.194)" fill="#778ba0"/>
      <path id="Path_87" data-name="Path 87" d="M66.412,29.082l-17.907-13a.474.474,0,0,0-.556,0l-17.907,13a.473.473,0,0,0-.2.383v3.123a.473.473,0,0,0,.473.473H66.134a.473.473,0,0,0,.473-.473V29.464A.473.473,0,0,0,66.412,29.082Zm-.751,3.032H30.793V29.706L48.227,17.05,65.661,29.706Z" transform="translate(-29.847 -15.993)" fill="#778ba0"/>
      <path id="Path_88" data-name="Path 88" d="M150.023,118.131a.473.473,0,0,0,.473-.473V116.1a.473.473,0,0,0-.473-.473H139.81a.473.473,0,0,0-.473.473v8.6a.473.473,0,0,0,.473.473h10.213a.473.473,0,0,0,.473-.473v-1.374a.473.473,0,0,0-.946,0v.9h-9.267v-7.658h9.267v1.081A.473.473,0,0,0,150.023,118.131Z" transform="translate(-118.623 -96.781)" fill="#778ba0"/>
      <path id="Path_89" data-name="Path 89" d="M102.815,46.526a4.575,4.575,0,1,0,4.575-4.575A4.581,4.581,0,0,0,102.815,46.526Zm4.1-3.6v3.119H103.8A3.632,3.632,0,0,1,106.917,42.931ZM103.795,47h3.123v3.125A3.632,3.632,0,0,1,103.795,47Zm4.068,3.125V47h3.123A3.632,3.632,0,0,1,107.863,50.121Zm3.122-4.071h-3.122V42.931A3.632,3.632,0,0,1,110.985,46.051Z" transform="translate(-89.01 -37.04)" fill="#778ba0"/>
    </g>
  </g>
</svg>
