<svg xmlns="http://www.w3.org/2000/svg" width="71.413" height="50" viewBox="0 0 71.413 50">
  <g id="Group_214" data-name="Group 214" transform="translate(-5196 5726)">
    <g id="g5" transform="translate(5196 -5726)">
      <path id="path7" d="M69.942,7.824a8.947,8.947,0,0,0-6.294-6.294C58.059,0,35.706,0,35.706,0S13.353,0,7.765,1.471A9.131,9.131,0,0,0,1.471,7.824C0,13.412,0,25,0,25S0,36.647,1.471,42.177a8.947,8.947,0,0,0,6.294,6.294C13.412,50,35.706,50,35.706,50s22.353,0,27.941-1.471a8.947,8.947,0,0,0,6.294-6.294c1.471-5.588,1.471-17.177,1.471-17.177s.059-11.647-1.471-17.235Z" fill="#f28c8c"/>
      <path id="polygon9" d="M47.177,25,28.588,14.294V35.706Z" fill="#fff"/>
    </g>
  </g>
</svg>
